<svg xmlns="http://www.w3.org/2000/svg" version="1.1" xmlns:xlink="http://www.w3.org/1999/xlink" xmlns:svgjs="http://svgjs.dev/svgjs" width="1020" height="1020"><svg width="1020" height="1020" viewBox="0 0 1020 1020" fill="none" xmlns="http://www.w3.org/2000/svg">
<rect width="1019.23" height="1019.23" fill="#266770"></rect>
<path fill-rule="evenodd" clip-rule="evenodd" d="M250.011 301.899H522.594V331.527H481.114C474.569 331.527 469.263 336.833 469.263 343.379V378.933H433.708C427.163 378.933 421.857 384.239 421.857 390.785V432.265C421.857 438.81 427.163 444.116 433.708 444.116H469.263V479.671H320.068C317.582 479.671 315.16 480.452 313.143 481.904L250.011 527.36V485.596V301.899ZM244.085 301.899C244.085 298.626 246.738 295.973 250.011 295.973H522.594C525.867 295.973 528.52 298.626 528.52 301.899V331.527C528.52 334.8 525.867 337.453 522.594 337.453H481.114C477.842 337.453 475.188 340.106 475.188 343.379V378.933C475.188 382.206 472.535 384.859 469.263 384.859H433.708C430.436 384.859 427.783 387.512 427.783 390.785V432.265C427.783 435.537 430.436 438.191 433.708 438.191H469.263C472.535 438.191 475.188 440.844 475.188 444.116V479.671C475.188 482.943 472.535 485.596 469.263 485.596H320.068C318.825 485.596 317.614 485.987 316.605 486.713L253.473 532.169C249.553 534.991 244.085 532.19 244.085 527.36V485.596V301.899ZM534.446 337.453C531.173 337.453 528.52 340.106 528.52 343.379V378.933C528.52 382.206 531.173 384.859 534.446 384.859H570C573.273 384.859 575.926 387.512 575.926 390.785V432.265C575.926 435.537 573.273 438.191 570 438.191H534.446C531.173 438.191 528.52 440.844 528.52 444.116V479.671C528.52 482.943 525.867 485.596 522.594 485.596H481.114C477.842 485.596 475.188 488.249 475.188 491.522V521.151C475.188 524.423 477.842 527.077 481.114 527.077H683.641C684.883 527.077 686.095 527.467 687.103 528.193L750.236 573.649C754.155 576.471 759.624 573.67 759.624 568.84V527.077V343.379C759.624 340.106 756.971 337.453 753.698 337.453H534.446ZM510.743 411.525C510.743 416.434 506.763 420.413 501.854 420.413C496.945 420.413 492.966 416.434 492.966 411.525C492.966 406.616 496.945 402.636 501.854 402.636C506.763 402.636 510.743 406.616 510.743 411.525ZM466.3 420.413C471.209 420.413 475.188 416.434 475.188 411.525C475.188 406.616 471.209 402.636 466.3 402.636C461.391 402.636 457.411 406.616 457.411 411.525C457.411 416.434 461.391 420.413 466.3 420.413ZM546.297 411.525C546.297 416.434 542.318 420.413 537.409 420.413C532.5 420.413 528.52 416.434 528.52 411.525C528.52 406.616 532.5 402.636 537.409 402.636C542.318 402.636 546.297 406.616 546.297 411.525ZM710.808 718.652H703.387V622.181H673.704V625.15H681.125V718.652H673.704V721.621H710.808V718.652ZM221.348 679.916C221.348 667.251 219.617 657.406 216.154 650.381C212.79 643.257 208.09 639.695 202.054 639.695C196.117 639.695 191.418 643.257 187.955 650.381C184.491 657.505 182.76 667.449 182.76 680.212C182.76 692.976 184.392 702.821 187.658 709.747C191.022 716.674 195.821 720.137 202.054 720.137C214.917 720.137 221.348 706.73 221.348 679.916ZM245.244 680.806C245.244 694.361 241.236 704.8 233.222 712.122C225.207 719.444 214.769 723.105 201.906 723.105C189.043 723.105 178.654 719.493 170.738 712.271C162.823 704.949 158.865 694.51 158.865 680.954C158.865 667.3 162.823 656.515 170.738 648.6C178.654 640.684 189.142 636.726 202.203 636.726C215.362 636.726 225.801 640.684 233.519 648.6C241.335 656.416 245.244 667.152 245.244 680.806ZM302.395 721.621V713.755C300.515 716.426 297.546 718.702 293.49 720.582C289.532 722.363 285.228 723.253 280.577 723.253C262.965 723.253 254.159 713.705 254.159 694.609V656.317H246.738V653.349H276.422V697.874C276.422 704.899 277.46 709.896 279.538 712.864C281.616 715.833 284.733 717.317 288.889 717.317C294.43 717.317 298.932 714.348 302.395 708.412V656.317H294.974V653.349H324.657V718.652H332.078V721.621H302.395ZM364.171 715.981V650.826H339.979V652.458C344.171 655.911 346.11 657.11 347.156 657.757C347.37 657.889 347.546 657.998 347.697 658.098V715.981C347.56 719.124 346.92 719.121 342.531 719.101C342.306 719.1 342.071 719.099 341.825 719.098C341.66 719.098 341.49 719.098 341.315 719.098H339.979V721.621H371.74V719.098C370.876 719.098 370.1 719.115 369.403 719.131L369.401 719.131C365.554 719.217 364.171 719.248 364.171 715.981ZM383.465 650.084C377.38 650.084 372.482 654.981 372.482 661.067C372.482 667.152 377.38 672.049 383.465 672.049C389.55 672.049 394.448 667.152 394.448 661.067C394.448 654.981 389.55 650.084 383.465 650.084ZM514.928 641.476H507.507V718.652H514.928V721.621H477.824V718.652H485.244V678.877H456.006V718.652H463.427V721.621H426.323V718.652H433.744V641.476H426.323V638.507H463.427V641.476H456.006V675.908H485.244V641.476H477.824V638.507H514.928V641.476ZM543.161 691.937H587.983C587.983 677.887 584.816 667.696 578.484 661.363C572.25 655.031 564.384 651.865 554.886 651.865C545.486 651.865 537.471 654.784 530.842 660.621C524.213 666.36 520.898 675.216 520.898 687.188C520.898 694.213 521.987 700.199 524.163 705.146C526.439 710.094 529.556 713.804 533.514 716.278C537.471 718.751 541.528 720.532 545.684 721.621C549.84 722.61 554.49 723.105 559.635 723.105C564.879 723.105 570.123 721.918 575.367 719.543C580.611 717.168 584.322 714.15 586.499 710.49L584.421 709.005C582.442 711.875 579.276 714.101 574.922 715.684C570.667 717.267 566.858 718.059 563.494 718.059C550.928 718.059 544.15 709.352 543.161 691.937ZM567.204 688.969H543.012V687.336C543.012 678.827 543.952 671.307 545.832 664.777C547.712 658.148 550.779 654.833 555.034 654.833C559.289 654.833 562.356 658.247 564.236 665.074C566.215 671.901 567.204 679.866 567.204 688.969ZM667.779 718.652C666.79 719.642 664.91 720.532 662.139 721.324C659.369 722.017 656.153 722.363 652.492 722.363C644.379 722.363 639.283 719.939 637.205 715.09C632.258 720.236 624.689 722.808 614.497 722.808C609.055 722.808 604.553 721.571 600.991 719.098C597.528 716.525 595.797 712.765 595.797 707.818C595.797 701.189 598.369 696.093 603.514 692.531C608.659 688.87 617.663 686.297 630.526 684.813L636.463 684.071V676.799C636.463 668.191 635.82 662.402 634.534 659.434C633.247 656.466 630.675 654.981 626.816 654.981C623.056 654.981 620.632 655.526 619.543 656.614C618.455 657.604 618.059 658.791 618.356 660.176C618.653 661.462 619.148 663.194 619.84 665.371C620.533 667.547 620.879 669.279 620.879 670.565C620.879 673.633 619.791 676.255 617.614 678.431C615.536 680.509 612.964 681.548 609.896 681.548C606.928 681.548 604.355 680.509 602.179 678.431C600.002 676.255 598.913 673.633 598.913 670.565C598.913 665.519 601.486 661.215 606.631 657.653C611.875 653.992 619.642 652.162 629.933 652.162C640.322 652.162 647.693 654.19 652.047 658.247C656.499 662.303 658.726 669.477 658.726 679.767V706.482C658.726 711.726 659.369 715.041 660.655 716.426C661.941 717.712 664.316 717.96 667.779 717.168V718.652ZM616.427 704.85C616.921 708.61 618.307 711.528 620.582 713.606C622.858 715.585 625.48 716.575 628.448 716.575C631.516 716.575 634.187 715.09 636.463 712.122V686.891L631.12 687.633C626.568 688.227 622.858 689.958 619.989 692.828C617.218 695.697 616.031 699.704 616.427 704.85ZM741.726 629.751C741.726 645.711 741.675 663.677 741.633 678.722C741.603 689.561 741.577 698.884 741.577 704.85C741.577 720.582 759.387 714.645 765.621 712.271L766.808 713.755C751.224 724.292 725.251 730.674 725.251 701.881V657.208H715.901V655.278C722.728 654.091 731.93 643.85 739.054 629.751H741.726ZM769.183 660.176C769.183 665.816 764.433 671.159 758.2 671.159C752.412 671.159 747.217 666.41 747.217 660.176C747.217 654.091 752.115 649.193 758.2 649.193C764.285 649.193 769.183 654.091 769.183 660.176ZM860.362 718.652H852.941V680.361C852.941 661.264 844.135 651.716 826.523 651.716C821.773 651.716 817.42 652.607 813.462 654.388C809.504 656.169 806.585 658.395 804.705 661.067V622.181H775.022V625.15H782.443V718.652H775.022V721.621H812.126V718.652H804.705V666.558C808.069 660.621 812.571 657.653 818.211 657.653C822.367 657.653 825.484 659.137 827.562 662.105C829.639 665.074 830.678 670.071 830.678 677.096V718.652H823.257V721.621H860.362V718.652Z" fill="white"></path>
</svg><style>@media (prefers-color-scheme: light) { :root { filter: none; } }
@media (prefers-color-scheme: dark) { :root { filter: none; } }
</style></svg>