<svg width="7" height="11" viewBox="0 0 7 11" fill="none" xmlns="http://www.w3.org/2000/svg">
<path fill-rule="evenodd" clip-rule="evenodd" d="M1.29308 10.7072C1.10561 10.5197 1.00029 10.2654 1.00029 10.0002C1.00029 9.73505 1.10561 9.48074 1.29308 9.29321L4.58608 6.00021L1.29308 2.70721C1.19757 2.61497 1.12139 2.50462 1.06898 2.38262C1.01657 2.26061 0.988985 2.12939 0.987831 1.99661C0.986677 1.86384 1.01198 1.73216 1.06226 1.60926C1.11254 1.48636 1.18679 1.37471 1.28069 1.28082C1.37458 1.18693 1.48623 1.11267 1.60913 1.06239C1.73202 1.01211 1.8637 0.986809 1.99648 0.987963C2.12926 0.989117 2.26048 1.0167 2.38249 1.06911C2.50449 1.12152 2.61483 1.1977 2.70708 1.29321L6.70708 5.29321C6.89455 5.48074 6.99987 5.73505 6.99987 6.00021C6.99987 6.26538 6.89455 6.51969 6.70708 6.70721L2.70708 10.7072C2.51955 10.8947 2.26525 11 2.00008 11C1.73492 11 1.48061 10.8947 1.29308 10.7072Z" fill="#266770"/>
</svg>
