<svg width="218" height="218" viewBox="0 0 218 218" fill="none" xmlns="http://www.w3.org/2000/svg">
<path d="M192.803 195.446L206.862 197.431L207.181 89.3426L204.705 87.7549L192.803 195.446Z" fill="white"/>
<path d="M206.979 108.805L207.027 89.3102L204.734 87.9062L202.272 109.078L206.979 108.805Z" fill="#92C9A7"/>
<path d="M192.119 199.781L200.25 200.987L204.617 109.128L202.306 108.984L192.119 199.781Z" fill="white"/>
<path d="M94.5185 79.3789L204.705 87.7554L191.775 202.947L79.1123 186.242L94.5185 79.3789Z" fill="white"/>
<path d="M91.7739 98.9951L202.333 109.028L204.705 87.7554L94.5189 79.3789L91.7739 98.9951Z" fill="#BCE9CD"/>
<path d="M110.41 134.772L93.9853 132.847C93.1696 132.752 92.603 131.993 92.7244 131.186L95.2162 114.619C95.3324 113.85 96.0236 113.311 96.7915 113.392L112.687 115.045C113.496 115.131 114.075 115.864 113.971 116.672L111.843 133.502C111.749 134.231 111.123 134.772 110.41 134.772ZM110.34 133.94C110.677 133.978 110.988 133.738 111.03 133.399L113.159 116.568C113.201 116.216 112.953 115.904 112.604 115.866L96.7085 114.213C96.3785 114.178 96.0796 114.41 96.0288 114.742L93.537 131.309C93.4872 131.648 93.7176 131.986 94.0798 132.025L110.34 133.94Z" fill="black"/>
<path d="M109.608 139.601L93.169 137.66C92.3916 137.57 91.689 138.107 91.5728 138.885L89.0354 155.75C88.9109 156.571 89.492 157.311 90.2818 157.409L107.279 159.545C107.995 159.545 108.617 159.01 108.71 158.279L110.869 141.228C110.972 140.427 110.405 139.696 109.608 139.601Z" fill="#B26EE6"/>
<path d="M129.5 188.217L111.924 185.595C111.146 185.478 110.601 184.746 110.706 183.964L113.01 166.779C113.117 165.99 113.843 165.433 114.626 165.533L131.897 167.788C132.684 167.892 133.244 168.619 133.144 169.413L130.926 186.945C130.829 187.694 130.196 188.217 129.5 188.217ZM114.435 166.351C114.13 166.351 113.865 166.576 113.822 166.89L111.517 184.075C111.471 184.412 111.706 184.728 112.041 184.779L129.396 187.383C129.742 187.435 130.062 187.191 130.105 186.844L132.323 169.31C132.366 168.969 132.124 168.654 131.785 168.61L114.435 166.351Z" fill="black"/>
<path d="M155.421 192.107L137.277 189.4C136.5 189.283 135.955 188.55 136.06 187.768L138.428 170.098C138.533 169.309 139.257 168.751 140.044 168.852L157.885 171.182C158.671 171.285 159.232 172.012 159.131 172.806L156.849 190.835C156.752 191.583 156.121 192.107 155.421 192.107ZM139.857 169.669C139.552 169.669 139.285 169.896 139.242 170.211L136.873 187.879C136.828 188.216 137.062 188.533 137.398 188.583L155.324 191.271C155.67 191.324 155.991 191.079 156.033 190.732L158.315 172.704C158.359 172.362 158.117 172.048 157.778 172.004L139.857 169.669Z" fill="black"/>
<path d="M183.676 196.343L164.044 193.415C163.267 193.298 162.722 192.566 162.827 191.783L165.266 173.604C165.373 172.815 166.098 172.257 166.882 172.357L186.104 174.867C186.885 174.971 187.447 175.696 187.35 176.482L185.105 195.063C185.013 195.823 184.369 196.343 183.676 196.343ZM166.695 173.173C166.39 173.173 166.121 173.4 166.077 173.714L163.638 191.894C163.593 192.232 163.827 192.548 164.163 192.598L183.578 195.51C183.933 195.563 184.247 195.307 184.289 194.965L186.533 176.384C186.575 176.045 186.333 175.73 185.996 175.686L166.695 173.173Z" fill="black"/>
<path d="M135.875 137.771L118.652 135.754C117.849 135.659 117.281 134.922 117.389 134.116L119.66 117.184C119.765 116.402 120.458 115.851 121.239 115.934L138.198 117.7C139.008 117.786 139.585 118.52 139.482 119.327L137.308 136.502C137.214 137.231 136.588 137.771 135.875 137.771ZM121.091 116.755C120.781 116.755 120.519 116.98 120.476 117.296L118.205 134.228C118.158 134.569 118.398 134.891 118.75 134.934L135.804 136.944C136.141 136.982 136.451 136.74 136.494 136.4L138.668 119.225C138.711 118.874 138.464 118.561 138.114 118.523L121.091 116.755Z" fill="black"/>
<path d="M161.903 140.842L144.115 138.754C143.314 138.659 142.747 137.921 142.854 137.116L145.17 119.84C145.275 119.057 145.968 118.507 146.749 118.589L164.271 120.413C165.075 120.499 165.658 121.229 165.554 122.04L163.334 139.572C163.241 140.301 162.616 140.842 161.903 140.842ZM161.833 140.009C162.17 140.048 162.477 139.808 162.521 139.468L164.741 121.936C164.783 121.585 164.536 121.272 164.186 121.234L146.665 119.41C146.33 119.378 146.029 119.612 145.983 119.949L143.668 137.226C143.621 137.568 143.862 137.889 144.213 137.932L161.833 140.009Z" fill="black"/>
<path d="M132.712 162.757L115.315 160.571C114.535 160.472 113.958 159.755 114.064 158.935L116.357 141.833C116.462 141.052 117.178 140.496 117.956 140.584L135.067 142.604C135.862 142.699 136.434 143.427 136.33 144.23L134.144 161.488C134.051 162.22 133.427 162.757 132.712 162.757ZM117.788 141.401C117.483 141.401 117.215 141.631 117.171 141.946L114.878 159.048C114.831 159.402 115.082 159.71 115.416 159.752L132.636 161.926C132.976 161.97 133.288 161.727 133.332 161.385L135.517 144.128C135.559 143.79 135.327 143.47 134.972 143.426L117.788 141.401Z" fill="black"/>
<path d="M158.71 166.04L140.746 163.785C139.964 163.687 139.389 162.968 139.495 162.149L141.815 144.842C141.92 144.061 142.636 143.504 143.413 143.593L161.09 145.681C161.887 145.776 162.457 146.507 162.353 147.308L160.143 164.772C160.049 165.504 159.425 166.04 158.71 166.04ZM143.247 144.405C142.942 144.405 142.67 144.637 142.63 144.951L140.309 162.259C140.261 162.612 140.513 162.921 140.847 162.963L158.635 165.207C158.974 165.251 159.286 165.007 159.33 164.664L161.54 147.199C161.585 146.837 161.322 146.533 160.996 146.497L143.247 144.405Z" fill="black"/>
<path d="M186.904 169.599L167.598 167.171C166.816 167.073 166.241 166.355 166.347 165.536L168.696 148.012C168.801 147.231 169.517 146.674 170.294 146.763L189.206 148.996C190.002 149.091 190.566 149.811 190.471 150.613L188.333 168.319C188.245 169.062 187.614 169.599 186.904 169.599ZM170.124 147.581C169.819 147.581 169.549 147.811 169.509 148.124L167.158 165.648C167.11 166.001 167.362 166.311 167.696 166.352L186.819 168.769C187.152 168.81 187.47 168.576 187.515 168.222L189.652 150.516C189.694 150.179 189.459 149.857 189.108 149.818L170.124 147.581Z" fill="black"/>
<path d="M189.977 144.151L170.995 141.926C170.187 141.831 169.627 141.088 169.734 140.288L172.102 122.643C172.207 121.861 172.9 121.31 173.682 121.393L192.288 123.33C193.09 123.415 193.669 124.137 193.574 124.95L191.408 142.875C191.319 143.609 190.695 144.151 189.977 144.151ZM173.529 122.218C173.219 122.218 172.957 122.439 172.914 122.755L170.545 140.4C170.499 140.742 170.738 141.063 171.09 141.107L189.899 143.326C190.239 143.365 190.549 143.122 190.59 142.78L192.756 124.855C192.799 124.509 192.547 124.19 192.202 124.157L173.529 122.218Z" fill="black"/>
<path d="M112.712 109.542L97.8935 107.956C96.9979 107.86 96.3524 107.043 96.4624 106.144C96.5693 105.268 97.356 104.637 98.2287 104.729L113.05 106.27C113.909 106.36 114.545 107.114 114.494 107.981V108.022C114.437 108.947 113.627 109.64 112.712 109.542Z" fill="#97A0B2"/>
<path d="M138.2 112.332L122.448 110.653C121.522 110.554 120.872 109.692 121.028 108.769C121.228 107.575 122.121 107.202 122.811 107.275L138.55 108.925C139.041 108.976 140.078 109.372 139.981 110.827C139.921 111.745 139.112 112.428 138.2 112.332Z" fill="#97A0B2"/>
<path d="M164.231 115.396L147.808 113.641C146.922 113.547 146.28 112.746 146.374 111.854L146.424 111.37C146.517 110.48 147.31 109.836 148.192 109.928L164.606 111.635C165.474 111.724 166.113 112.492 166.048 113.369L166.01 113.901C165.944 114.816 165.138 115.492 164.231 115.396Z" fill="#97A0B2"/>
<path d="M194.007 116.33L193.929 117.044C193.836 117.936 193.04 118.584 192.154 118.486L174.705 116.598C173.816 116.502 173.173 115.696 173.276 114.801L173.349 114.159C173.449 113.273 174.238 112.636 175.117 112.728L192.568 114.544C193.454 114.636 194.1 115.437 194.007 116.33Z" fill="#97A0B2"/>
<path d="M89.435 162.658L106.421 164.877C106.986 164.95 107.385 165.471 107.312 166.039L105.156 183.088C105.083 183.665 104.552 184.07 103.98 183.985L86.6423 181.383C86.0767 181.298 85.6875 180.768 85.7737 180.2L88.281 163.534C88.365 162.974 88.8788 162.587 89.435 162.658Z" fill="white"/>
<path d="M104.136 184.413L86.5826 181.793C85.8001 181.675 85.248 180.943 85.3673 180.139L87.8746 163.473C87.9909 162.698 88.7152 162.15 89.4863 162.25L106.474 164.469C107.261 164.572 107.821 165.299 107.72 166.093L105.564 183.142C105.468 183.889 104.837 184.413 104.136 184.413ZM89.2954 163.067C88.9923 163.067 88.7329 163.289 88.6841 163.597L86.1768 180.262C86.1259 180.594 86.348 180.921 86.6988 180.975L104.036 183.577C104.381 183.63 104.703 183.386 104.745 183.038L106.902 165.99C106.945 165.648 106.703 165.334 106.364 165.29L89.2954 163.067Z" fill="black"/>
<path d="M202.333 109.028C202.568 109.017 206.983 108.907 206.983 108.907L202.333 109.028Z" fill="white"/>
<path d="M207.402 88.9941C204.858 87.3656 204.924 87.3541 204.62 87.3311L94.55 78.964C94.3362 78.9483 94.1442 79.1019 94.112 79.3171L78.7059 186.18C78.6737 186.404 78.8294 186.613 79.0525 186.648L191.776 203.359C191.968 203.359 192.161 203.213 192.184 202.992L192.491 200.253C200.7 201.471 200.308 201.476 200.51 201.304C200.704 201.145 200.642 201.345 200.849 197L206.861 197.845C207.097 197.845 207.273 197.65 207.273 197.432C207.431 89.0066 207.707 89.1884 207.402 88.9941ZM206.712 108.5C205.958 108.518 203.756 108.574 202.779 108.601L205.039 88.4603L206.768 89.5696L206.712 108.5ZM94.8686 79.8195L204.25 88.1344L201.954 108.582L92.1589 98.6189L94.8686 79.8195ZM191.416 202.475L79.5766 185.893L92.0406 99.4357L201.863 109.402L191.416 202.475ZM199.861 200.511L192.584 199.431L202.686 109.428C203.022 109.419 203.572 109.404 204.195 109.388L199.861 200.511ZM200.888 196.17L205.016 109.366L206.709 109.324L206.451 196.955L200.888 196.17Z" fill="black"/>
<path d="M112.374 90.5207C112.236 94.0358 109.294 96.7715 105.802 96.6326C102.31 96.4937 99.5921 93.5333 99.7301 90.0183C99.8682 86.5033 102.809 83.7675 106.301 83.9064C109.794 84.0454 112.512 87.0057 112.374 90.5207ZM106.178 87.0266C104.398 86.9566 102.9 88.3501 102.83 90.1426C102.761 91.9341 104.145 93.4445 105.926 93.5124C107.706 93.5814 109.204 92.1889 109.274 90.3964C109.343 88.605 107.959 87.0966 106.178 87.0266Z" fill="white"/>
<path d="M110.997 85.6642C106.947 81.2456 99.5518 83.9823 99.3172 89.9981C99.1688 93.8191 102.206 97.048 106.053 97.048C111.904 97.048 114.968 89.9888 110.997 85.6642ZM105.816 96.2175C102.554 96.089 100.008 93.3126 100.136 90.0326C100.343 84.748 106.827 82.3423 110.396 86.224C113.939 90.0868 111.1 96.4191 105.816 96.2175Z" fill="black"/>
<path d="M106.19 86.6122C102.968 86.49 101.19 90.3675 103.378 92.7512C105.564 95.1349 109.552 93.6579 109.68 90.4113C109.758 88.3974 108.194 86.6926 106.19 86.6122Z" fill="black"/>
<path d="M105.867 92.3713C107.045 92.5259 108.092 91.6924 108.233 90.5266L109.949 75.4512C110.025 74.8109 110.59 74.346 111.228 74.3962C112.151 74.4682 112.54 74.4275 112.924 74.8829C113.129 75.1263 113.231 75.4428 113.206 75.7614L112.8 80.7629L116.58 81.0522L117.148 75.5671C117.447 72.682 115.284 70.1363 112.407 69.9786L111.087 69.9076C108.459 69.7676 106.163 71.6875 105.824 74.3147L103.896 89.9772C103.745 91.1356 104.557 92.1979 105.706 92.3515L105.867 92.3713Z" fill="#FFD997"/>
<path d="M105.652 92.7659C104.279 92.5873 103.308 91.3119 103.489 89.9299L105.417 74.2695C105.781 71.4428 108.282 69.3484 111.108 69.4999L112.425 69.5709C115.537 69.7391 117.874 72.4947 117.554 75.6139L116.986 81.099C116.964 81.3215 116.77 81.4834 116.546 81.4687C112.496 81.1888 112.645 81.2233 112.487 81.0352C112.327 80.8462 112.37 81.1209 112.795 75.7308C112.83 75.2806 112.493 74.9119 112.075 74.8795L111.194 74.8106C110.773 74.7782 110.406 75.0811 110.356 75.5031L108.639 90.5765C108.487 91.8592 107.386 92.9926 105.652 92.7659ZM110.819 70.3095C108.521 70.3095 106.532 72.055 106.233 74.3698L104.305 90.0301C104.184 90.964 104.838 91.8227 105.762 91.9438C106.989 92.1036 107.725 91.3453 107.827 90.4751L109.543 75.4018C109.646 74.5369 110.401 73.9164 111.26 73.9812C112.015 74.0386 112.698 73.977 113.236 74.6121C113.512 74.938 113.648 75.3673 113.614 75.7914L113.242 80.3803L116.212 80.607L116.738 75.5209C117.011 72.8718 115.027 70.5309 112.385 70.3868C112.385 70.3868 110.901 70.3095 110.819 70.3095Z" fill="black"/>
<path d="M132.564 92.0276C132.426 95.5427 129.485 98.2795 125.993 98.1395C122.501 97.9995 119.782 95.0402 119.921 91.5252C120.06 88.0102 123 85.2734 126.492 85.4133C129.984 85.5533 132.702 88.5126 132.564 92.0276ZM126.368 88.5335C124.589 88.4635 123.09 89.857 123.021 91.6495C122.951 93.441 124.335 94.9493 126.116 95.0193C127.896 95.0893 129.395 93.6958 129.464 91.9033C129.534 90.1119 128.149 88.6035 126.368 88.5335Z" fill="white"/>
<path d="M126.385 88.1254C124.367 88.0534 122.69 89.6171 122.61 91.6352C122.48 94.9069 126.361 96.6555 128.71 94.4661C131.079 92.2651 129.606 88.255 126.385 88.1254Z" fill="black"/>
<path d="M131.188 87.1751C128.661 84.4174 124.397 84.2566 121.668 86.797C117.275 90.8761 120.001 98.3188 125.973 98.5548C131.896 98.8536 135.266 91.6251 131.188 87.1751ZM126.008 97.7265C120.771 97.5207 118.364 90.9973 122.224 87.4018C126.057 83.8387 132.36 86.6748 132.152 92.0084C132.025 95.2916 129.267 97.8602 126.008 97.7265Z" fill="black"/>
<path d="M126.056 93.8782C127.234 94.0328 128.281 93.1992 128.422 92.0334L130.138 76.958C130.214 76.3177 130.779 75.8528 131.417 75.903C132.34 75.9751 132.729 75.9343 133.113 76.3898C133.318 76.6332 133.42 76.9497 133.395 77.2683L132.989 82.2697L136.769 82.5591L137.337 77.074C137.636 74.1888 135.474 71.6432 132.596 71.4854L131.276 71.4144C128.648 71.2744 126.352 73.1944 126.013 75.8215L124.085 91.484C123.934 92.6424 124.746 93.7048 125.895 93.8583L126.056 93.8782Z" fill="#FFD997"/>
<path d="M126.33 94.3143C124.564 94.3143 123.49 92.8863 123.679 91.4375L125.607 75.7771C125.972 72.9504 128.473 70.8581 131.299 71.0075L132.617 71.0786C135.728 71.2467 138.065 74.0023 137.745 77.1215L137.178 82.6066C137.155 82.8291 136.962 82.9952 136.738 82.9764C132.692 82.6348 132.837 82.7309 132.678 82.5429C132.518 82.3538 132.562 82.6285 132.986 77.2385C133.021 76.7882 132.684 76.4195 132.266 76.3871L131.386 76.3182C130.967 76.2858 130.597 76.5887 130.547 77.0107L128.831 92.0841C128.681 93.3397 127.626 94.3143 126.33 94.3143ZM131.009 71.8171C128.711 71.8171 126.722 73.5626 126.423 75.8774L124.495 91.5378C124.416 92.1488 124.68 93.2843 126.113 93.4713C127.046 93.5935 127.906 92.9229 128.016 91.9828L129.733 76.9094C129.835 76.0445 130.59 75.4219 131.449 75.4888C132.205 75.5473 132.888 75.4846 133.425 76.1197C133.701 76.4456 133.838 76.8749 133.803 77.299L133.431 81.8879L136.402 82.1146L136.928 77.0285C137.201 74.3794 135.216 72.0385 132.574 71.8944C132.574 71.8944 131.091 71.8171 131.009 71.8171Z" fill="black"/>
<path d="M152.753 93.5345C152.615 97.0495 149.673 99.7853 146.181 99.6463C142.689 99.5074 139.971 96.5471 140.109 93.032C140.247 89.517 143.188 86.7802 146.68 86.9202C150.173 87.0602 152.891 90.0195 152.753 93.5345ZM146.557 90.0403C144.777 89.9704 143.278 91.3638 143.209 93.1563C143.139 94.9478 144.524 96.4583 146.305 96.5262C148.085 96.5951 149.585 95.2027 149.653 93.4102C149.721 91.6187 148.338 90.1103 146.557 90.0403Z" fill="white"/>
<path d="M146.567 89.6326C144.557 89.5563 142.873 91.12 142.793 93.1424C142.714 95.196 144.345 96.9436 146.43 96.9436C148.374 96.9436 149.979 95.4018 150.056 93.4307C150.134 91.4167 148.57 89.713 146.567 89.6326Z" fill="black"/>
<path d="M141.856 88.3033C139.157 90.8103 138.921 95.0941 141.48 97.8863C145.515 102.289 152.926 99.6067 153.162 93.5523C153.396 87.5491 146.255 84.2106 141.856 88.3033ZM142.082 97.3243C139.876 94.9196 139.998 91.1581 142.412 88.9091C146.247 85.345 152.545 88.1936 152.339 93.5178C152.135 98.7773 145.66 101.225 142.082 97.3243Z" fill="black"/>
<path d="M146.247 95.387C147.415 95.5405 148.47 94.7184 148.613 93.5422L150.33 78.4668C150.406 77.8265 150.97 77.3616 151.608 77.4118C152.531 77.4839 152.92 77.4431 153.304 77.8986C153.51 78.1419 153.612 78.4585 153.586 78.7771L153.181 83.7785L156.96 84.0679L157.528 78.5828C157.828 75.6976 155.665 73.152 152.787 72.9942L151.467 72.9232C148.839 72.7832 146.544 74.7032 146.204 77.3303L144.276 92.9928C144.126 94.1512 144.937 95.2136 146.086 95.3671L146.247 95.387Z" fill="#FFD997"/>
<path d="M146.52 95.8229C144.754 95.8229 143.677 94.398 143.866 92.9461L145.794 77.2857C146.159 74.459 148.66 72.3688 151.486 72.5161L152.806 72.5871C155.927 72.7564 158.253 75.5235 157.935 78.6301L157.367 84.1152C157.344 84.3377 157.15 84.5027 156.927 84.485C152.868 84.1622 153.024 84.2374 152.867 84.0514C152.707 83.8624 152.75 84.1371 153.175 78.7471C153.21 78.2989 152.875 77.9291 152.455 77.8957L151.575 77.8268C151.156 77.7944 150.786 78.0973 150.736 78.5193L149.02 93.5927C148.87 94.8483 147.816 95.8229 146.52 95.8229ZM151.199 73.3257C148.902 73.3257 146.909 75.0712 146.611 77.386L144.683 93.0464C144.604 93.6595 144.868 94.7929 146.301 94.9809C147.234 95.1031 148.094 94.4325 148.204 93.4924L149.921 78.4191C150.023 77.5541 150.778 76.9326 151.637 76.9995C152.393 77.058 153.076 76.9953 153.613 77.6304C153.889 77.9563 154.026 78.3856 153.992 78.8097L153.62 83.3986L156.591 83.6253L157.117 78.5392C157.39 75.8901 155.405 73.5492 152.763 73.4051C152.763 73.4051 151.279 73.3257 151.199 73.3257Z" fill="black"/>
<path d="M172.942 95.0422C172.804 98.5572 169.863 101.294 166.371 101.154C162.879 101.014 160.161 98.0548 160.299 94.5398C160.437 91.0248 163.378 88.289 166.87 88.4279C170.363 88.5668 173.081 91.5272 172.942 95.0422ZM166.747 91.5481C164.967 91.4781 163.468 92.8716 163.399 94.6641C163.329 96.4555 164.714 97.9639 166.495 98.0339C168.274 98.1039 169.773 96.7104 169.843 94.9179C169.912 93.1265 168.528 91.6181 166.747 91.5481Z" fill="white"/>
<path d="M166.759 91.1394C164.748 91.0631 163.064 92.6269 162.984 94.6492C162.905 96.7028 164.537 98.4504 166.622 98.4504C168.562 98.4504 170.168 96.9086 170.246 94.9375C170.325 92.9528 168.799 91.2209 166.759 91.1394Z" fill="black"/>
<path d="M162.048 89.8103C159.346 92.3183 159.114 96.6022 161.672 99.3933C165.707 103.796 173.118 101.115 173.353 95.0593C173.587 89.0551 166.447 85.7176 162.048 89.8103ZM162.274 98.8313C160.069 96.4267 160.189 92.6651 162.604 90.4162C166.441 86.8499 172.737 89.7058 172.53 95.0248C172.327 100.277 165.859 102.74 162.274 98.8313Z" fill="black"/>
<path d="M166.438 96.8958C167.606 97.0493 168.661 96.2272 168.804 95.051L170.521 79.9756C170.595 79.3353 171.161 78.8704 171.799 78.9206C172.722 78.9926 173.111 78.9519 173.495 79.4073C173.701 79.6507 173.803 79.9672 173.777 80.2858L173.372 85.2873L177.15 85.5767L177.718 80.0915C178.018 77.2064 175.855 74.6608 172.977 74.503L171.657 74.432C169.029 74.292 166.734 76.212 166.394 78.8391L164.466 94.5016C164.316 95.66 165.127 96.7224 166.276 96.8759L166.438 96.8958Z" fill="#FFD997"/>
<path d="M166.708 97.3328C164.941 97.3328 163.869 95.9028 164.058 94.456L165.986 78.7956C166.35 75.969 168.853 73.8767 171.677 74.0261L172.997 74.0971C176.107 74.2653 178.446 77.0209 178.126 80.14L177.558 85.6251C177.536 85.8476 177.341 86.0137 177.118 85.9949C173.062 85.6523 173.215 85.7473 173.058 85.5614C172.899 85.3723 172.941 85.6471 173.367 80.257C173.402 79.8089 173.067 79.4391 172.646 79.4057L171.766 79.3367C171.347 79.3023 170.978 79.6073 170.928 80.0293L169.211 95.1026C169.061 96.3634 168.003 97.3328 166.708 97.3328ZM171.39 74.8356C169.092 74.8356 167.099 76.5811 166.802 78.8959L164.873 94.5563C164.794 95.1695 165.058 96.307 166.491 96.4909C167.433 96.611 168.286 95.9404 168.395 95.0024L170.111 79.929C170.214 79.0641 170.966 78.4447 171.828 78.5094C172.583 78.5658 173.267 78.5053 173.804 79.1404C174.078 79.4642 174.217 79.8956 174.182 80.3197L173.811 84.9085L176.781 85.1352L177.307 80.0491C177.58 77.4001 175.596 75.0592 172.954 74.915C172.954 74.915 171.47 74.8356 171.39 74.8356Z" fill="black"/>
<path d="M193.134 96.5521C192.996 100.067 190.055 102.803 186.563 102.664C183.07 102.525 180.351 99.5646 180.49 96.0496C180.63 92.5346 183.57 89.7978 187.062 89.9378C190.554 90.0777 193.272 93.037 193.134 96.5521ZM186.938 93.0579C185.158 92.9879 183.659 94.3814 183.589 96.1739C183.52 97.9654 184.904 99.4738 186.685 99.5437C188.465 99.6137 189.965 98.2203 190.033 96.4277C190.102 94.6363 188.719 93.1279 186.938 93.0579Z" fill="white"/>
<path d="M183.177 96.1566C183.098 98.2123 184.733 99.9578 186.812 99.9578C189.991 99.9578 191.607 96.1409 189.476 93.8188C187.305 91.4508 183.307 92.8839 183.177 96.1566Z" fill="black"/>
<path d="M187.074 89.5219C183.363 89.3756 180.223 92.2931 180.077 96.0307C179.84 102.087 187.009 105.345 191.38 101.28C195.773 97.2016 193.047 89.7579 187.074 89.5219ZM180.897 96.0651C181.02 92.9241 183.601 90.251 187.04 90.3502C192.3 90.5571 194.673 97.0972 190.824 100.675C186.989 104.239 180.692 101.388 180.897 96.0651Z" fill="black"/>
<path d="M186.628 98.4026C187.795 98.5562 188.851 97.7341 188.994 96.5579L190.711 81.4824C190.785 80.8421 191.351 80.3773 191.989 80.4274C192.913 80.4995 193.301 80.4587 193.685 80.9142C193.891 81.1576 193.993 81.4741 193.967 81.7927L193.562 86.7941L197.34 87.0835L197.908 81.5984C198.208 78.7132 196.045 76.1676 193.167 76.0099L191.847 75.9388C189.219 75.7989 186.924 77.7188 186.584 80.3459L184.656 96.0084C184.506 97.1669 185.317 98.2292 186.466 98.3828L186.628 98.4026Z" fill="#FFD997"/>
<path d="M186.899 98.8397C185.129 98.8397 184.062 97.4065 184.249 95.9629L186.177 80.3025C186.541 77.4758 189.044 75.3835 191.868 75.5329L193.188 75.6039C196.299 75.7721 198.637 78.5277 198.317 81.6469L197.749 87.132C197.727 87.3545 197.532 87.5195 197.309 87.5018C193.251 87.18 193.406 87.2542 193.249 87.0682C193.09 86.8792 193.132 87.1539 193.558 81.7638C193.593 81.3157 193.258 80.9459 192.837 80.9125L191.957 80.8436C191.538 80.807 191.169 81.1141 191.119 81.5361L189.402 96.6095C189.252 97.8703 188.194 98.8397 186.899 98.8397ZM186.68 97.9956C187.632 98.1199 188.477 97.442 188.586 96.5113L190.302 81.4379C190.405 80.573 191.159 79.9525 192.019 80.0173C192.774 80.0748 193.457 80.0131 193.995 80.6482C194.269 80.9721 194.407 81.4035 194.373 81.8276L194.002 86.4164L196.972 86.6431L197.498 81.557C197.771 78.908 195.787 76.5671 193.145 76.4229L191.825 76.3519C189.426 76.2213 187.302 78.0013 186.991 80.4007L185.062 96.0611C184.983 96.6742 185.247 97.8076 186.68 97.9956Z" fill="black"/>
<path d="M71.5728 129.669L77.3035 90.0373C77.8712 86.0522 75.122 82.3606 71.1628 81.7892L24.8188 75.106C20.8596 74.5346 17.192 77.3017 16.6243 81.2868L10.8936 120.92C10.3259 124.905 13.075 128.597 17.0343 129.168L37.0908 132.059C39.1197 140.733 48.8065 154.88 72.3272 153.012C56.26 149.862 50.6092 140.861 49.9647 133.915L63.3793 135.85C67.3385 136.421 71.0051 133.654 71.5728 129.669Z" fill="#FEE992"/>
<path d="M71.9805 129.732L77.7113 90.0982C78.3101 85.8791 75.4021 81.9839 71.2219 81.3822L24.8779 74.699C20.6914 74.1004 16.8173 77.0169 16.2185 81.2307L10.4878 120.867C9.89102 125.07 12.801 128.981 16.9771 129.583L36.7596 132.434C38.8176 140.705 47.6389 153.599 68.1915 153.599C69.5313 153.599 70.9199 153.543 72.3593 153.429C72.8346 153.392 72.872 152.702 72.4071 152.612C54.1065 149.026 50.9609 138.367 50.4316 134.405L63.3211 136.264C67.4972 136.865 71.3838 133.935 71.9805 129.732ZM55.0768 145.183C58.5368 148.655 63.3211 151.197 69.3279 152.757C48.2439 153.248 39.3998 140.127 37.4923 131.968C37.4539 131.803 37.3169 131.679 37.1499 131.654L17.0933 128.764C13.3645 128.227 10.7659 124.735 11.2993 120.984L17.029 81.3477C17.5738 77.5089 21.1169 74.981 24.7627 75.5158L71.1067 82.1991C74.8438 82.736 77.4321 86.2165 76.8987 89.9791L71.1679 129.613C70.6345 133.364 67.1682 135.982 63.4384 135.443C49.7041 133.456 49.9075 133.404 49.6823 133.619C49.591 133.705 49.5453 133.83 49.5568 133.956C49.9324 138.005 51.8949 141.992 55.0768 145.183Z" fill="black"/>
<path d="M44.922 123.119C59.3926 123.119 71.1234 111.311 71.1234 96.7466C71.1234 82.1815 59.3926 70.374 44.922 70.374C30.4514 70.374 18.7207 82.1815 18.7207 96.7466C18.7207 111.311 30.4514 123.119 44.922 123.119Z" fill="#BCE9CD"/>
<path d="M61.8153 76.0666L64.0694 74.1509L68.0307 78.5841C68.1988 78.769 68.4624 78.7502 68.6098 78.6165C71.5779 75.9298 71.8218 71.3117 69.1526 68.3242C66.4813 65.3367 61.8952 65.0912 58.9271 67.7779C58.7611 67.9293 58.7465 68.1905 58.897 68.3608L62.5449 72.444L59.9462 74.6533C52.7065 69.6466 43.7099 68.7076 35.9118 71.53L34.3769 68.6668L39.2566 66.211C39.4569 66.1076 39.5389 65.86 39.4393 65.6563C37.6543 62.064 33.2986 60.6016 29.7265 62.3983C26.1575 64.197 24.7046 68.5832 26.4896 72.1766C26.5374 72.2727 26.6245 72.349 26.7262 72.3834C26.9598 72.4576 26.5695 72.5965 32.3356 69.6947L33.7916 72.4106C17.2241 80.1092 13.2234 101.665 25.3605 114.9L22.1869 122.023C22.1049 122.207 22.1662 122.422 22.3332 122.535C24.7409 124.16 24.5977 124.096 24.7679 124.096C24.9215 124.096 24.4701 124.317 31.9692 120.149C37.8276 123.442 44.9708 124.484 51.8825 122.594C51.9033 122.688 51.9438 122.776 52.0216 122.836C59.4388 128.586 58.9105 128.23 59.115 128.23C59.2312 128.23 59.0838 128.281 61.6887 127.053C61.8693 126.968 61.9627 126.764 61.9098 126.569L59.8134 118.925C74.5782 108.854 75.5485 87.463 61.8153 76.0666ZM70.6885 97.8744C70.0689 112.175 58.0056 123.3 43.7991 122.678C36.9154 122.377 30.563 119.395 25.9085 114.284C16.2818 103.712 16.9865 87.3032 27.4973 77.6074C32.3999 73.0864 38.8945 70.5115 46.047 70.8093C60.2545 71.4329 71.3081 83.5741 70.6885 97.8744Z" fill="#92C9A7"/>
<path d="M59.6216 83.1852C52.1868 75.0166 39.5724 74.4546 31.4485 81.9537C23.3287 89.4475 22.7797 102.134 30.2218 110.309C37.6607 118.48 50.2638 119.036 58.3929 111.544C66.5168 104.055 67.0627 91.3612 59.6216 83.1852Z" fill="white"/>
<path d="M44.3047 96.053C46.7384 92.5422 51.7509 88.884 54.6298 87.408C55.0169 87.2096 55.4154 87.6587 55.1788 88.0233C53.2599 90.9753 49.0101 95.538 45.5459 97.4434C44.668 97.926 43.7391 96.8699 44.3047 96.053Z" fill="black"/>
<path d="M65.2516 97.6362C65.7414 86.3578 57.0748 76.7738 45.8063 76.2786C34.5732 75.7856 25.0804 84.5444 24.5895 95.851C24.0997 107.155 32.7944 116.712 44.0348 117.206C55.1455 117.712 64.7576 109.045 65.2516 97.6362ZM45.3622 77.0986L45.2366 79.9733C45.2148 80.5259 46.0357 80.551 46.0575 80.0099L46.182 77.1456C51.1002 77.4642 55.6291 79.5889 59.0289 83.1729L56.9264 85.1116C56.5247 85.4824 57.0831 86.0852 57.4805 85.7196L59.5831 83.7808C62.8377 87.5037 64.549 92.2294 64.4348 97.188L61.5871 97.0627C61.0485 97.0303 61.0049 97.866 61.5508 97.889L64.3985 98.0143C64.082 102.966 61.9701 107.525 58.4063 110.944L56.4822 108.83C56.1158 108.428 55.5118 108.986 55.8782 109.388L57.8023 111.502C54.1056 114.776 49.4106 116.496 44.4842 116.381L44.6087 113.518C44.6305 112.968 43.8106 112.937 43.7878 113.481L43.6633 116.346C38.7472 116.028 34.2193 113.902 30.8184 110.315L32.9158 108.382C33.3154 108.013 32.7612 107.405 32.3616 107.774L30.2653 109.707C27.0118 105.987 25.3015 101.261 25.4167 96.3033L28.2779 96.4286C28.8144 96.4286 28.8227 95.6243 28.2966 95.6024L25.454 95.477C25.7695 90.532 27.8825 85.9744 31.4421 82.5513L33.3641 84.6635C33.7409 85.0636 34.3335 84.5026 33.9702 84.1036L32.0461 81.9925C35.6629 78.7877 40.2998 76.9837 45.3622 77.0986Z" fill="black"/>
<path d="M44.9234 97.1568C44.7729 97.1568 44.6245 97.0743 44.5539 96.9301L36.5172 80.7537C36.2775 80.267 37.0018 79.8919 37.2509 80.3819L45.2876 96.5583C45.4226 96.834 45.2254 97.1568 44.9234 97.1568Z" fill="black"/>
<path d="M44.9223 94.4561C46.1791 94.4561 47.1972 95.4808 47.1972 96.7458C47.1972 98.0108 46.1791 99.0355 44.9223 99.0355C43.6655 99.0355 42.6475 98.0108 42.6475 96.7458C42.6475 95.4808 43.6655 94.4561 44.9223 94.4561Z" fill="white"/>
<path d="M44.924 99.9537C43.113 99.9537 41.6591 98.4265 41.7379 96.6068C41.8147 94.8383 43.2946 93.4668 45.061 93.542C46.8159 93.6162 48.1827 95.1204 48.1059 96.8868C48.0311 98.6072 46.6177 99.9537 44.924 99.9537ZM44.9219 95.3763C44.1851 95.3763 43.5925 95.954 43.5613 96.6862C43.5292 97.4414 44.1135 98.0839 44.8648 98.1183C45.6172 98.1528 46.2544 97.5626 46.2876 96.8084C46.3198 96.073 45.7604 95.3763 44.9219 95.3763Z" fill="black"/>
<path d="M54.2641 49.3175L49.8919 48.7649C48.9942 48.65 48.3124 47.8958 48.2875 46.9818L47.4738 16.9479C47.4437 15.8167 48.4224 14.9246 49.537 15.0667L62.8966 16.7578C64.0112 16.8999 64.7407 18.0082 64.4325 19.0956L56.2567 47.9919C56.0087 48.8683 55.1629 49.4324 54.2641 49.3175Z" fill="#FFD997"/>
<path d="M54.4967 49.7455C54.2684 49.7455 54.4583 49.758 49.8401 49.1741C48.7328 49.0341 47.9067 48.117 47.8756 46.9941L47.0619 16.9602C47.0235 15.5834 48.216 14.4877 49.5848 14.6569L62.9444 16.3481C64.2967 16.5194 65.2017 17.8606 64.8249 19.2092L56.6491 48.1055C56.371 49.0916 55.4899 49.7455 54.4967 49.7455ZM54.312 48.9077C55.0136 48.9997 55.6663 48.5641 55.8594 47.8778L64.0352 18.9815C64.2739 18.1385 63.7072 17.2725 62.8427 17.167L49.4831 15.4759C48.6259 15.3662 47.8569 16.0504 47.8808 16.9372L48.6944 46.9711C48.712 47.6845 49.2372 48.2653 49.9408 48.3541L54.312 48.9077Z" fill="black"/>
<path d="M53.9862 53.9285L49.0193 53.2997C48.2606 53.2036 47.5217 53.5911 47.1658 54.2743L44.4831 59.4251C43.8884 60.5658 44.6086 61.953 45.8779 62.1139L54.8631 63.2514C56.1324 63.4123 57.1722 62.2465 56.8754 60.9941L55.5419 55.3345C55.3665 54.5845 54.7448 54.0246 53.9862 53.9285Z" fill="#FFD997"/>
<path d="M55.0916 63.6786C54.883 63.6786 51.7966 63.2764 45.8282 62.5222C44.2757 62.3258 43.3956 60.6294 44.1189 59.2318L46.8017 54.081C47.2344 53.2505 48.1466 52.7731 49.0693 52.888L54.0382 53.5169C54.9619 53.6339 55.7278 54.3243 55.9416 55.2373L57.2751 60.8969C57.6083 62.3206 56.5373 63.6786 55.0916 63.6786ZM48.7963 53.7007C48.2722 53.7007 47.7772 53.9922 47.5312 54.4674L44.8485 59.6183C44.3805 60.5114 44.9575 61.5821 45.9341 61.7064L54.9193 62.844C55.9042 62.9693 56.7137 62.071 56.4833 61.0932L55.1497 55.4337C55.0127 54.856 54.527 54.4163 53.9417 54.3421C50.1475 53.8574 48.9281 53.7007 48.7963 53.7007Z" fill="black"/>
<path d="M60.2383 54.7549L70.5291 29.4854L80.5086 38.3298L60.2383 54.7549Z" fill="white"/>
<path d="M60.2402 55.1671C59.9455 55.1671 59.7463 54.8673 59.8573 54.5978L70.1482 29.3283C70.254 29.0671 70.5851 28.9877 70.7999 29.1747L80.7814 38.0192C80.9692 38.1842 80.9692 38.4872 80.7679 38.6501C60.2942 55.2339 60.4675 55.1671 60.2402 55.1671ZM70.6868 30.1775L61.221 53.4278L79.8703 38.3159L70.6868 30.1775Z" fill="black"/>
<path d="M39.3895 54.4029L35.9585 27.0547L24.936 33.3828L39.3895 54.4029Z" fill="white"/>
<path d="M39.0524 54.6365L24.599 33.6163C24.462 33.4158 24.5222 33.1473 24.7308 33.024L35.7543 26.6939C36.0106 26.5455 36.3313 26.7127 36.3655 26.9989L39.7965 54.3492C39.8484 54.7785 39.2921 54.9916 39.0524 54.6365ZM25.5268 33.5181L38.7722 52.7802L35.6287 27.7176L25.5268 33.5181Z" fill="black"/>
<g clip-path="url(#clip0_67_4490)">
<path fill-rule="evenodd" clip-rule="evenodd" d="M106.38 142.12C106.729 142.506 106.7 143.101 106.315 143.45C104.452 145.14 103.147 146.573 102.062 148.267C100.973 149.967 100.079 151.97 99.0832 154.83C98.9758 155.138 98.7162 155.369 98.3973 155.44C98.0783 155.51 97.7457 155.41 97.5183 155.176L93.2392 150.763C92.8773 150.39 92.8864 149.794 93.2597 149.432C93.6329 149.07 94.2289 149.079 94.5909 149.452L97.8203 152.783C98.654 150.56 99.4788 148.809 100.477 147.252C101.682 145.37 103.115 143.811 105.05 142.056C105.435 141.706 106.03 141.735 106.38 142.12Z" fill="white"/>
</g>
<defs>
<clipPath id="clip0_67_4490">
<rect width="14.1558" height="14.1558" fill="white" transform="translate(92.7207 141.559)"/>
</clipPath>
</defs>
</svg>
