<svg width="73" height="72" viewBox="0 0 73 72" fill="none" xmlns="http://www.w3.org/2000/svg">
<rect x="0.640625" width="71.76" height="71.76" rx="35.88" fill="#FF0000"/>
<path d="M49.2962 43.9912C49.2962 44.4525 49.1937 44.9266 48.9758 45.3879C48.758 45.8492 48.4761 46.2849 48.1045 46.695C47.4766 47.3869 46.7846 47.8867 46.0029 48.2071C45.2341 48.5274 44.4011 48.694 43.5041 48.694C42.1971 48.694 40.8003 48.3865 39.3267 47.7586C37.853 47.1307 36.3794 46.2849 34.9186 45.2213C33.4449 44.1449 32.0482 42.9532 30.7155 41.6333C29.3956 40.3006 28.2039 38.9039 27.1403 37.4431C26.0895 35.9822 25.2438 34.5214 24.6287 33.0734C24.0136 31.6126 23.7061 30.2158 23.7061 28.8831C23.7061 28.0117 23.8598 27.1788 24.1674 26.41C24.4749 25.6283 24.9619 24.9107 25.641 24.27C26.4611 23.4627 27.3581 23.0654 28.3064 23.0654C28.6652 23.0654 29.024 23.1423 29.3443 23.2961C29.6775 23.4499 29.9722 23.6805 30.2029 24.0137L33.1758 28.204C33.4065 28.5243 33.5731 28.819 33.6884 29.101C33.8037 29.3701 33.8678 29.6392 33.8678 29.8826C33.8678 30.1902 33.7781 30.4977 33.5987 30.7924C33.4321 31.0872 33.1886 31.3947 32.8811 31.7023L31.9072 32.7146C31.7662 32.8555 31.7022 33.0221 31.7022 33.2272C31.7022 33.3297 31.715 33.4194 31.7406 33.5219C31.7791 33.6244 31.8175 33.7013 31.8431 33.7782C32.0738 34.201 32.471 34.7521 33.0349 35.4184C33.6115 36.0847 34.2266 36.7639 34.8929 37.4431C35.5849 38.1222 36.2512 38.7501 36.9304 39.3268C37.5967 39.8906 38.1478 40.275 38.5834 40.5057C38.6475 40.5313 38.7244 40.5697 38.8141 40.6082C38.9166 40.6466 39.0191 40.6594 39.1345 40.6594C39.3523 40.6594 39.5189 40.5826 39.6598 40.4416L40.6337 39.4805C40.9541 39.1602 41.2616 38.9167 41.5564 38.7629C41.8511 38.5835 42.1458 38.4938 42.4662 38.4938C42.7096 38.4938 42.9659 38.5451 43.2478 38.6604C43.5298 38.7757 43.8245 38.9423 44.1448 39.1602L48.3864 42.1715C48.7195 42.4022 48.9502 42.6713 49.0912 42.9916C49.2193 43.312 49.2962 43.6324 49.2962 43.9912Z" fill="white"/>
</svg>
