<svg width="20" height="21" viewBox="0 0 20 21" fill="none" xmlns="http://www.w3.org/2000/svg">
<path fill-rule="evenodd" clip-rule="evenodd" d="M10 18.4805C12.1217 18.4805 14.1566 17.6376 15.6569 16.1373C17.1571 14.637 18 12.6022 18 10.4805C18 8.35874 17.1571 6.32391 15.6569 4.82361C14.1566 3.32332 12.1217 2.48047 10 2.48047C7.87827 2.48047 5.84344 3.32332 4.34315 4.82361C2.84285 6.32391 2 8.35874 2 10.4805C2 12.6022 2.84285 14.637 4.34315 16.1373C5.84344 17.6376 7.87827 18.4805 10 18.4805ZM11 6.48047C11 6.21525 10.8946 5.9609 10.7071 5.77336C10.5196 5.58583 10.2652 5.48047 10 5.48047C9.73478 5.48047 9.48043 5.58583 9.29289 5.77336C9.10536 5.9609 9 6.21525 9 6.48047V10.4805C9.00006 10.7457 9.10545 11 9.293 11.1875L12.121 14.0165C12.2139 14.1094 12.3242 14.1831 12.4456 14.2334C12.567 14.2836 12.6971 14.3095 12.8285 14.3095C12.9599 14.3095 13.09 14.2836 13.2114 14.2334C13.3328 14.1831 13.4431 14.1094 13.536 14.0165C13.6289 13.9236 13.7026 13.8133 13.7529 13.6919C13.8032 13.5705 13.8291 13.4404 13.8291 13.309C13.8291 13.1776 13.8032 13.0475 13.7529 12.9261C13.7026 12.8047 13.6289 12.6944 13.536 12.6015L11 10.0665V6.48047Z" fill="#302F2F"/>
</svg>
