<svg width="17" height="16" viewBox="0 0 17 16" fill="none" xmlns="http://www.w3.org/2000/svg">
<path fill-rule="evenodd" clip-rule="evenodd" d="M8.5 16C10.6217 16 12.6566 15.1571 14.1569 13.6569C15.6571 12.1566 16.5 10.1217 16.5 8C16.5 5.87827 15.6571 3.84344 14.1569 2.34315C12.6566 0.842855 10.6217 0 8.5 0C6.37827 0 4.34344 0.842855 2.84315 2.34315C1.34285 3.84344 0.5 5.87827 0.5 8C0.5 10.1217 1.34285 12.1566 2.84315 13.6569C4.34344 15.1571 6.37827 16 8.5 16ZM9.5 4C9.5 3.73478 9.39464 3.48043 9.20711 3.29289C9.01957 3.10536 8.76522 3 8.5 3C8.23478 3 7.98043 3.10536 7.79289 3.29289C7.60536 3.48043 7.5 3.73478 7.5 4V8C7.50006 8.26519 7.60545 8.51951 7.793 8.707L10.621 11.536C10.7139 11.6289 10.8242 11.7026 10.9456 11.7529C11.067 11.8032 11.1971 11.8291 11.3285 11.8291C11.4599 11.8291 11.59 11.8032 11.7114 11.7529C11.8328 11.7026 11.9431 11.6289 12.036 11.536C12.1289 11.4431 12.2026 11.3328 12.2529 11.2114C12.3032 11.09 12.3291 10.9599 12.3291 10.8285C12.3291 10.6971 12.3032 10.567 12.2529 10.4456C12.2026 10.3242 12.1289 10.2139 12.036 10.121L9.5 7.586V4Z" fill="white"/>
</svg>
