<svg width="167" height="101" viewBox="0 0 167 101" fill="none" xmlns="http://www.w3.org/2000/svg">
<path fill-rule="evenodd" clip-rule="evenodd" d="M22.2262 1.43827H86.6349V8.43922H76.8336C75.287 8.43922 74.0332 9.69299 74.0332 11.2396V19.6407H65.6321C64.0855 19.6407 62.8317 20.8945 62.8317 22.4411V32.2424C62.8317 33.789 64.0855 35.0428 65.6321 35.0428H74.0332V43.4439H38.78C38.1927 43.4439 37.6203 43.6286 37.1437 43.9717L22.2262 54.7123V44.8441V1.43827ZM20.826 1.43827C20.826 0.664972 21.4529 0.0380859 22.2262 0.0380859H86.6349C87.4082 0.0380859 88.0351 0.664972 88.0351 1.43827V8.43922C88.0351 9.21252 87.4082 9.83941 86.6349 9.83941H76.8336C76.0603 9.83941 75.4334 10.4663 75.4334 11.2396V19.6407C75.4334 20.414 74.8065 21.0409 74.0332 21.0409H65.6321C64.8588 21.0409 64.2319 21.6678 64.2319 22.4411V32.2424C64.2319 33.0157 64.8588 33.6426 65.6321 33.6426H74.0332C74.8065 33.6426 75.4334 34.2695 75.4334 35.0428V43.4439C75.4334 44.2172 74.8065 44.8441 74.0332 44.8441H38.78C38.4864 44.8441 38.2002 44.9364 37.9619 45.108L23.0443 55.8486C22.1181 56.5155 20.826 55.8536 20.826 54.7123V44.8441V1.43827ZM89.4353 9.83941C88.662 9.83941 88.0351 10.4663 88.0351 11.2396V19.6407C88.0351 20.414 88.662 21.0409 89.4353 21.0409H97.8364C98.6097 21.0409 99.2366 21.6678 99.2366 22.4411V32.2424C99.2366 33.0157 98.6097 33.6426 97.8364 33.6426H89.4353C88.662 33.6426 88.0351 34.2695 88.0351 35.0428V43.4439C88.0351 44.2172 87.4082 44.8441 86.6349 44.8441H76.8336C76.0603 44.8441 75.4334 45.471 75.4334 46.2443V53.2453C75.4334 54.0186 76.0603 54.6454 76.8336 54.6454H124.688C124.982 54.6454 125.268 54.7378 125.507 54.9093L140.424 65.6499C141.35 66.3168 142.642 65.6549 142.642 64.5136V54.6454V11.2396C142.642 10.4663 142.016 9.83941 141.242 9.83941H89.4353ZM83.8345 27.3418C83.8345 28.5017 82.8942 29.442 81.7342 29.442C80.5743 29.442 79.6339 28.5017 79.6339 27.3418C79.6339 26.1818 80.5743 25.2415 81.7342 25.2415C82.8942 25.2415 83.8345 26.1818 83.8345 27.3418ZM73.3331 29.442C74.493 29.442 75.4334 28.5017 75.4334 27.3418C75.4334 26.1818 74.493 25.2415 73.3331 25.2415C72.1731 25.2415 71.2328 26.1818 71.2328 27.3418C71.2328 28.5017 72.1731 29.442 73.3331 29.442ZM92.2356 27.3418C92.2356 28.5017 91.2953 29.442 90.1354 29.442C88.9754 29.442 88.0351 28.5017 88.0351 27.3418C88.0351 26.1818 88.9754 25.2415 90.1354 25.2415C91.2953 25.2415 92.2356 26.1818 92.2356 27.3418ZM131.108 99.9131H129.354V77.118H122.341V77.8193H124.094V99.9131H122.341V100.614H131.108V99.9131ZM15.4537 90.76C15.4537 87.7674 15.0445 85.4411 14.2262 83.7811C13.4313 82.0978 12.3208 81.2561 10.8947 81.2561C9.49187 81.2561 8.38134 82.0978 7.56306 83.7811C6.74477 85.4645 6.33563 87.8141 6.33563 90.8301C6.33563 93.8461 6.72139 96.1723 7.49292 97.8089C8.28783 99.4455 9.42174 100.264 10.8947 100.264C13.934 100.264 15.4537 97.0958 15.4537 90.76ZM21.0998 90.9704C21.0998 94.1734 20.153 96.6399 18.2592 98.37C16.3655 100.1 13.8989 100.965 10.8596 100.965C7.82023 100.965 5.36537 100.112 3.49501 98.4051C1.62464 96.675 0.689453 94.2085 0.689453 91.0054C0.689453 87.7791 1.62464 85.2307 3.49501 83.3603C5.36537 81.4899 7.84361 80.5548 10.9297 80.5548C14.0392 80.5548 16.5058 81.4899 18.3294 83.3603C20.1764 85.2073 21.0998 87.744 21.0998 90.9704ZM34.604 100.614V98.7558C34.1598 99.387 33.4584 99.9248 32.4999 100.369C31.5647 100.79 30.5477 101 29.4488 101C25.2873 101 23.2065 98.7441 23.2065 94.2318V85.1839H21.453V84.4825H28.4669V95.0034C28.4669 96.6633 28.7124 97.844 29.2033 98.5454C29.6943 99.2467 30.4308 99.5974 31.4127 99.5974C32.722 99.5974 33.7858 98.8961 34.604 97.4933V85.1839H32.8506V84.4825H39.8644V99.9131H41.6179V100.614H34.604ZM49.2011 99.2818V83.8864H43.4848V84.2721C44.4754 85.0879 44.9335 85.3711 45.1808 85.5241C45.2312 85.5553 45.2728 85.581 45.3084 85.6048V99.2818C45.2761 100.025 45.1249 100.024 44.0879 100.019C43.9988 100.019 43.9031 100.018 43.8004 100.018H43.4848V100.614H50.9897V100.018C50.7854 100.018 50.6016 100.022 50.437 100.026C49.528 100.046 49.2011 100.054 49.2011 99.2818ZM53.7602 83.711C52.3223 83.711 51.165 84.8683 51.165 86.3061C51.165 87.744 52.3223 88.9013 53.7602 88.9013C55.198 88.9013 56.3553 87.744 56.3553 86.3061C56.3553 84.8683 55.198 83.711 53.7602 83.711ZM84.8234 81.677H83.07V99.9131H84.8234V100.614H76.0561V99.9131H77.8095V90.5145H70.9009V99.9131H72.6543V100.614H63.887V99.9131H65.6405V81.677H63.887V80.9756H72.6543V81.677H70.9009V89.8131H77.8095V81.677H76.0561V80.9756H84.8234V81.677ZM91.4946 93.6006H102.086C102.086 90.2807 101.337 87.8726 99.8411 86.3763C98.3682 84.88 96.5095 84.1318 94.265 84.1318C92.044 84.1318 90.1502 84.8215 88.5838 86.2009C87.0174 87.557 86.2341 89.6494 86.2341 92.4784C86.2341 94.1383 86.4913 95.5528 87.0057 96.7218C87.5434 97.8907 88.2799 98.7675 89.215 99.352C90.1502 99.9364 91.1088 100.357 92.0907 100.614C93.0727 100.848 94.1715 100.965 95.3873 100.965C96.6264 100.965 97.8655 100.685 99.1046 100.123C100.344 99.5624 101.22 98.8493 101.735 97.9843L101.244 97.6336C100.776 98.3116 100.028 98.8376 98.9994 99.2117C97.9941 99.5858 97.094 99.7728 96.2991 99.7728C93.3299 99.7728 91.7284 97.7154 91.4946 93.6006ZM97.1758 92.8992H91.4595V92.5134C91.4595 90.5028 91.6816 88.7259 92.1258 87.1829C92.57 85.6164 93.2948 84.8332 94.3001 84.8332C95.3054 84.8332 96.0302 85.6398 96.4744 87.253C96.942 88.8662 97.1758 90.7483 97.1758 92.8992ZM120.941 99.9131C120.707 100.147 120.263 100.357 119.608 100.544C118.953 100.708 118.193 100.79 117.328 100.79C115.411 100.79 114.207 100.217 113.716 99.0714C112.547 100.287 110.759 100.895 108.351 100.895C107.065 100.895 106.001 100.603 105.159 100.018C104.341 99.4104 103.932 98.522 103.932 97.353C103.932 95.7866 104.54 94.5825 105.755 93.7409C106.971 92.8758 109.099 92.2679 112.138 91.9172L113.541 91.7419V90.0235C113.541 87.9895 113.389 86.6218 113.085 85.9204C112.781 85.219 112.173 84.8683 111.261 84.8683C110.373 84.8683 109.8 84.9969 109.543 85.2541C109.286 85.4879 109.192 85.7684 109.262 86.0957C109.333 86.3997 109.449 86.8088 109.613 87.3232C109.777 87.8375 109.859 88.2467 109.859 88.5506C109.859 89.2754 109.601 89.8949 109.087 90.4093C108.596 90.9002 107.988 91.1457 107.263 91.1457C106.562 91.1457 105.954 90.9002 105.44 90.4093C104.925 89.8949 104.668 89.2754 104.668 88.5506C104.668 87.3582 105.276 86.3412 106.492 85.4995C107.731 84.6345 109.566 84.202 111.998 84.202C114.453 84.202 116.194 84.6813 117.223 85.6398C118.275 86.5984 118.801 88.2934 118.801 90.7249V97.0374C118.801 98.2765 118.953 99.0597 119.257 99.387C119.561 99.691 120.122 99.7494 120.941 99.5624V99.9131ZM108.807 96.6516C108.923 97.54 109.251 98.2297 109.788 98.7207C110.326 99.1883 110.946 99.4221 111.647 99.4221C112.372 99.4221 113.003 99.0714 113.541 98.37V92.4082L112.278 92.5836C111.203 92.7238 110.326 93.133 109.648 93.811C108.994 94.489 108.713 95.4359 108.807 96.6516ZM138.392 90.4651L138.392 90.478L138.392 90.491C138.384 93.0464 138.378 95.2443 138.378 96.6516C138.378 100.369 142.587 98.9662 144.06 98.4051L144.34 98.7558C140.658 101.246 134.521 102.754 134.521 95.9502V85.3943H132.311V84.9384C133.924 84.6579 136.099 82.2381 137.782 78.9065H138.413C138.413 82.6704 138.402 86.9064 138.392 90.4574V90.4651ZM144.901 86.0957C144.901 87.4284 143.779 88.6909 142.306 88.6909C140.938 88.6909 139.711 87.5686 139.711 86.0957C139.711 84.6579 140.868 83.5006 142.306 83.5006C143.744 83.5006 144.901 84.6579 144.901 86.0957ZM166.446 99.9131H164.692V90.8652C164.692 86.3529 162.612 84.0968 158.45 84.0968C157.328 84.0968 156.299 84.3072 155.364 84.728C154.429 85.1488 153.739 85.6749 153.295 86.3061V77.118H146.281V77.8193H148.034V99.9131H146.281V100.614H155.048V99.9131H153.295V87.6037C154.09 86.2009 155.153 85.4995 156.486 85.4995C157.468 85.4995 158.205 85.8502 158.695 86.5516C159.186 87.253 159.432 88.4337 159.432 90.0936V99.9131H157.678V100.614H166.446V99.9131Z" fill="white"/>
</svg>
