<svg width="1126" height="156" viewBox="0 0 1126 156" fill="none" xmlns="http://www.w3.org/2000/svg">
<path fill-rule="evenodd" clip-rule="evenodd" d="M3.50813 3.61067H154.887V20.0649H131.851C128.216 20.0649 125.27 23.0116 125.27 26.6466V46.3917H105.524C101.889 46.3917 98.9427 49.3384 98.9427 52.9734V76.0093C98.9427 79.6443 101.889 82.591 105.524 82.591H125.27V102.336H42.4143C41.0341 102.336 39.6887 102.77 38.5686 103.577L3.50813 128.82L3.50813 105.627V3.61067ZM0.217285 3.61067C0.217285 1.79319 1.69064 0.319824 3.50813 0.319824H154.887C156.705 0.319824 158.178 1.79319 158.178 3.61067V20.0649C158.178 21.8824 156.705 23.3558 154.887 23.3558H131.851C130.034 23.3558 128.56 24.8291 128.56 26.6466V46.3917C128.56 48.2092 127.087 49.6825 125.27 49.6825H105.524C103.707 49.6825 102.234 51.1559 102.234 52.9734V76.0093C102.234 77.8268 103.707 79.3002 105.524 79.3002H125.27C127.087 79.3002 128.56 80.7735 128.56 82.591V102.336C128.56 104.154 127.087 105.627 125.27 105.627H42.4143C41.7242 105.627 41.0515 105.844 40.4915 106.247L5.43099 131.491C3.25416 133.058 0.217285 131.502 0.217285 128.82V105.627V3.61067ZM161.469 23.3558C159.651 23.3558 158.178 24.8291 158.178 26.6466V46.3917C158.178 48.2092 159.651 49.6825 161.469 49.6825H181.214C183.031 49.6825 184.505 51.1559 184.505 52.9734V76.0093C184.505 77.8268 183.031 79.3002 181.214 79.3002H161.469C159.651 79.3002 158.178 80.7735 158.178 82.591V102.336C158.178 104.154 156.705 105.627 154.887 105.627H131.851C130.034 105.627 128.56 107.1 128.56 108.918V125.372C128.56 127.19 130.034 128.663 131.851 128.663H244.324C245.014 128.663 245.687 128.88 246.247 129.283L281.307 154.527C283.484 156.094 286.521 154.538 286.521 151.856V128.663V26.6466C286.521 24.8291 285.048 23.3558 283.23 23.3558H161.469ZM148.305 64.4914C148.305 67.2176 146.095 69.4276 143.369 69.4276C140.643 69.4276 138.433 67.2176 138.433 64.4914C138.433 61.7651 140.643 59.5551 143.369 59.5551C146.095 59.5551 148.305 61.7651 148.305 64.4914ZM123.624 69.4276C126.35 69.4276 128.56 67.2176 128.56 64.4914C128.56 61.7651 126.35 59.5551 123.624 59.5551C120.898 59.5551 118.688 61.7651 118.688 64.4914C118.688 67.2176 120.898 69.4276 123.624 69.4276ZM168.051 64.4914C168.051 67.2176 165.84 69.4276 163.114 69.4276C160.388 69.4276 158.178 67.2176 158.178 64.4914C158.178 61.7651 160.388 59.5551 163.114 59.5551C165.84 59.5551 168.051 61.7651 168.051 64.4914ZM958.841 125.578H950.573V18.0973H917.502V21.4044H925.77V125.578H917.502V128.885H958.841V125.578ZM413.524 82.4202C413.524 68.3099 411.595 57.3414 407.737 49.5147C403.989 41.5777 398.753 37.6092 392.028 37.6092C385.414 37.6092 380.178 41.5777 376.32 49.5147C372.461 57.4517 370.532 68.5304 370.532 82.7509C370.532 96.9714 372.351 107.94 375.989 115.656C379.737 123.373 385.083 127.231 392.028 127.231C406.359 127.231 413.524 112.294 413.524 82.4202ZM440.146 83.4123C440.146 98.5147 435.682 110.145 426.753 118.302C417.824 126.46 406.194 130.538 391.863 130.538C377.532 130.538 365.957 126.515 357.139 118.467C348.32 110.31 343.91 98.68 343.91 83.5777C343.91 68.3651 348.32 56.3493 357.139 47.5304C365.957 38.7115 377.643 34.3021 392.194 34.3021C406.855 34.3021 418.485 38.7115 427.083 47.5304C435.792 56.2391 440.146 68.1997 440.146 83.4123ZM503.82 128.885V120.121C501.725 123.097 498.418 125.633 493.898 127.727C489.489 129.712 484.694 130.704 479.512 130.704C459.89 130.704 450.079 120.066 450.079 98.7903V56.1288H441.812V52.8218H474.882V102.428C474.882 110.255 476.04 115.822 478.355 119.129C480.67 122.436 484.142 124.089 488.772 124.089C494.945 124.089 499.961 120.782 503.82 114.168V56.1288H495.552V52.8218H528.623V125.578H536.89V128.885H503.82ZM572.646 122.601V50.0107H545.693V51.8296C550.363 55.6759 552.523 57.0116 553.689 57.7328C553.927 57.8797 554.123 58.0011 554.291 58.1131V122.601C554.139 126.103 553.426 126.1 548.536 126.078C548.116 126.076 547.665 126.074 547.181 126.074H545.693V128.885H581.079V126.074C580.115 126.074 579.249 126.093 578.473 126.111C574.187 126.207 572.646 126.241 572.646 122.601ZM594.142 49.184C587.362 49.184 581.906 54.6407 581.906 61.4202C581.906 68.1997 587.362 73.6564 594.142 73.6564C600.921 73.6564 606.378 68.1997 606.378 61.4202C606.378 54.6407 600.921 49.184 594.142 49.184ZM740.607 39.5934H732.339V125.578H740.607V128.885H699.268V125.578H707.536V81.2627H674.961V125.578H683.229V128.885H641.89V125.578H650.158V39.5934H641.89V36.2863H683.229V39.5934H674.961V77.9556H707.536V39.5934H699.268V36.2863H740.607V39.5934ZM772.062 95.8139H821.999C821.999 80.1603 818.471 68.806 811.416 61.7509C804.471 54.6958 795.707 51.1682 785.125 51.1682C774.652 51.1682 765.723 54.4202 758.337 60.9241C750.951 67.3178 747.259 77.184 747.259 90.5226C747.259 98.3493 748.471 105.019 750.896 110.53C753.432 116.042 756.904 120.176 761.314 122.932C765.723 125.688 770.243 127.672 774.873 128.885C779.503 129.987 784.684 130.538 790.416 130.538C796.259 130.538 802.101 129.215 807.944 126.57C813.786 123.924 817.92 120.562 820.345 116.483L818.03 114.83C815.826 118.026 812.298 120.507 807.448 122.271C802.707 124.034 798.463 124.916 794.715 124.916C780.715 124.916 773.164 115.215 772.062 95.8139ZM798.849 92.5068H771.896V90.6879C771.896 81.2076 772.944 72.8296 775.038 65.554C777.133 58.1682 780.55 54.4753 785.29 54.4753C790.03 54.4753 793.448 58.2785 795.542 65.8848C797.747 73.4911 798.849 82.3651 798.849 92.5068ZM910.901 125.578C909.799 126.68 907.704 127.672 904.618 128.554C901.531 129.326 897.948 129.712 893.87 129.712C884.83 129.712 879.153 127.011 876.838 121.609C871.326 127.341 862.893 130.208 851.539 130.208C845.476 130.208 840.46 128.83 836.492 126.074C832.633 123.208 830.704 119.019 830.704 113.507C830.704 106.121 833.57 100.444 839.303 96.4753C845.035 92.3966 855.067 89.5304 869.397 87.8769L876.011 87.0501V78.9477C876.011 69.3572 875.295 62.9084 873.862 59.6013C872.429 56.2942 869.563 54.6407 865.263 54.6407C861.074 54.6407 858.374 55.247 857.161 56.4596C855.948 57.5619 855.508 58.8848 855.838 60.4281C856.169 61.8611 856.72 63.7903 857.492 66.2155C858.263 68.6407 858.649 70.5698 858.649 72.0029C858.649 75.4202 857.437 78.3414 855.011 80.7666C852.696 83.0816 849.83 84.2391 846.413 84.2391C843.106 84.2391 840.24 83.0816 837.815 80.7666C835.389 78.3414 834.177 75.4202 834.177 72.0029C834.177 66.3808 837.043 61.5855 842.775 57.617C848.618 53.5383 857.271 51.4989 868.736 51.4989C880.311 51.4989 888.523 53.7588 893.374 58.2785C898.334 62.7981 900.815 70.7903 900.815 82.2548V112.019C900.815 117.861 901.531 121.554 902.964 123.097C904.397 124.53 907.043 124.806 910.901 123.924V125.578ZM853.689 110.2C854.24 114.389 855.783 117.641 858.319 119.956C860.854 122.16 863.775 123.263 867.082 123.263C870.5 123.263 873.476 121.609 876.011 118.302V90.1918L870.059 91.0186C864.988 91.68 860.854 93.6092 857.657 96.806C854.57 100.003 853.248 104.467 853.689 110.2ZM993.184 81.0093L993.184 81.0909V81.1123V81.1365V81.1638C993.15 93.2078 993.121 103.566 993.121 110.2C993.121 127.727 1012.96 121.113 1019.91 118.467L1021.23 120.121C1003.87 131.861 974.932 138.971 974.932 106.893V57.121H964.515V54.9714C972.121 53.6485 982.373 42.2391 990.31 26.5304H993.286C993.286 44.2307 993.231 64.1454 993.184 80.861L993.184 80.9319L993.184 81.0093ZM1023.88 60.4281C1023.88 66.7115 1018.59 72.6643 1011.64 72.6643C1005.19 72.6643 999.405 67.3729 999.405 60.4281C999.405 53.6485 1004.86 48.1918 1011.64 48.1918C1018.42 48.1918 1023.88 53.6485 1023.88 60.4281ZM1125.46 125.578H1117.19V82.9163C1117.19 61.6407 1107.38 51.0029 1087.76 51.0029C1082.47 51.0029 1077.62 51.995 1073.21 53.9792C1068.8 55.9635 1065.55 58.4438 1063.45 61.4202V18.0973H1030.38V21.4044H1038.65V125.578H1030.38V128.885H1071.72V125.578H1063.45V67.5383C1067.2 60.9241 1072.22 57.617 1078.5 57.617C1083.13 57.617 1086.6 59.2706 1088.92 62.5777C1091.23 65.8848 1092.39 71.4517 1092.39 79.2785V125.578H1084.12V128.885H1125.46V125.578Z" fill="#266770"/>
</svg>
