<svg width="52" height="52" viewBox="0 0 52 52" fill="none" xmlns="http://www.w3.org/2000/svg">
<rect x="0.154297" y="0.250977" width="51.2571" height="51.2571" rx="25.6286" fill="#4C4C4C" fill-opacity="0.46"/>
<path d="M25.7824 28.8698C27.6703 28.8698 29.1995 27.3406 29.1995 25.4526V20.7541C29.1995 18.8661 27.6703 17.3369 25.7824 17.3369C23.8944 17.3369 22.3652 18.8661 22.3652 20.7541V25.4526C22.3652 27.3406 23.8944 28.8698 25.7824 28.8698Z" stroke="white" stroke-width="1.28143" stroke-linecap="round" stroke-linejoin="round"/>
<path d="M19.248 23.873V25.3253C19.248 28.9304 22.1782 31.8606 25.7833 31.8606C29.3884 31.8606 32.3186 28.9304 32.3186 25.3253V23.873" stroke="white" stroke-width="1.28143" stroke-linecap="round" stroke-linejoin="round"/>
<path d="M24.5947 21.1226C25.3636 20.8407 26.2008 20.8407 26.9696 21.1226" stroke="white" stroke-width="1.28143" stroke-linecap="round" stroke-linejoin="round"/>
<path d="M25.0996 22.9325C25.5524 22.8129 26.0222 22.8129 26.475 22.9325" stroke="white" stroke-width="1.28143" stroke-linecap="round" stroke-linejoin="round"/>
<path d="M25.7822 31.8604V34.4232" stroke="white" stroke-width="1.28143" stroke-linecap="round" stroke-linejoin="round"/>
</svg>
