<svg width="25" height="25" viewBox="0 0 25 25" fill="none" xmlns="http://www.w3.org/2000/svg">
<path d="M5.08008 12.4805H5.09008M12.0801 12.4805H12.0901M19.0801 12.4805H19.0901M6.08008 12.4805C6.08008 12.7457 5.97472 13 5.78718 13.1876C5.59965 13.3751 5.34529 13.4805 5.08008 13.4805C4.81486 13.4805 4.56051 13.3751 4.37297 13.1876C4.18544 13 4.08008 12.7457 4.08008 12.4805C4.08008 12.2153 4.18544 11.9609 4.37297 11.7734C4.56051 11.5858 4.81486 11.4805 5.08008 11.4805C5.34529 11.4805 5.59965 11.5858 5.78718 11.7734C5.97472 11.9609 6.08008 12.2153 6.08008 12.4805ZM13.0801 12.4805C13.0801 12.7457 12.9747 13 12.7872 13.1876C12.5996 13.3751 12.3453 13.4805 12.0801 13.4805C11.8149 13.4805 11.5605 13.3751 11.373 13.1876C11.1854 13 11.0801 12.7457 11.0801 12.4805C11.0801 12.2153 11.1854 11.9609 11.373 11.7734C11.5605 11.5858 11.8149 11.4805 12.0801 11.4805C12.3453 11.4805 12.5996 11.5858 12.7872 11.7734C12.9747 11.9609 13.0801 12.2153 13.0801 12.4805ZM20.0801 12.4805C20.0801 12.7457 19.9747 13 19.7872 13.1876C19.5996 13.3751 19.3453 13.4805 19.0801 13.4805C18.8149 13.4805 18.5605 13.3751 18.373 13.1876C18.1854 13 18.0801 12.7457 18.0801 12.4805C18.0801 12.2153 18.1854 11.9609 18.373 11.7734C18.5605 11.5858 18.8149 11.4805 19.0801 11.4805C19.3453 11.4805 19.5996 11.5858 19.7872 11.7734C19.9747 11.9609 20.0801 12.2153 20.0801 12.4805Z" stroke="#618E87" stroke-width="2" stroke-linecap="round" stroke-linejoin="round"/>
</svg>
