<svg width="24" height="25" viewBox="0 0 24 25" fill="none" xmlns="http://www.w3.org/2000/svg">
<path d="M12.8487 2.84744C12.6237 2.62247 12.3185 2.49609 12.0003 2.49609C11.6821 2.49609 11.3769 2.62247 11.1519 2.84744L2.75189 11.2474C2.5333 11.4738 2.41235 11.7769 2.41508 12.0915C2.41782 12.4062 2.54402 12.7071 2.76651 12.9296C2.989 13.1521 3.28998 13.2783 3.60461 13.281C3.91925 13.2838 4.22237 13.1628 4.44869 12.9442L4.80029 12.5926V20.4958C4.80029 20.8141 4.92672 21.1193 5.15177 21.3444C5.37681 21.5694 5.68203 21.6958 6.00029 21.6958H8.40029C8.71855 21.6958 9.02378 21.5694 9.24882 21.3444C9.47386 21.1193 9.60029 20.8141 9.60029 20.4958V18.0958C9.60029 17.7776 9.72672 17.4724 9.95177 17.2473C10.1768 17.0223 10.482 16.8958 10.8003 16.8958H13.2003C13.5186 16.8958 13.8238 17.0223 14.0488 17.2473C14.2739 17.4724 14.4003 17.7776 14.4003 18.0958V20.4958C14.4003 20.8141 14.5267 21.1193 14.7518 21.3444C14.9768 21.5694 15.282 21.6958 15.6003 21.6958H18.0003C18.3186 21.6958 18.6238 21.5694 18.8488 21.3444C19.0739 21.1193 19.2003 20.8141 19.2003 20.4958V12.5926L19.5519 12.9442C19.7782 13.1628 20.0813 13.2838 20.396 13.281C20.7106 13.2783 21.0116 13.1521 21.2341 12.9296C21.4566 12.7071 21.5828 12.4062 21.5855 12.0915C21.5882 11.7769 21.4673 11.4738 21.2487 11.2474L12.8487 2.84744Z" fill="#649890"/>
</svg>
