<svg width="25" height="25" viewBox="0 0 25 25" fill="none" xmlns="http://www.w3.org/2000/svg">
<path d="M20.334 20.0957L15.0007 14.7624M16.7784 10.3179C16.7784 11.135 16.6175 11.9442 16.3048 12.6991C15.9921 13.454 15.5338 14.1399 14.956 14.7177C14.3782 15.2955 13.6923 15.7538 12.9373 16.0665C12.1824 16.3792 11.3733 16.5401 10.5562 16.5401C9.73909 16.5401 8.92998 16.3792 8.17507 16.0665C7.42015 15.7538 6.73422 15.2955 6.15643 14.7177C5.57864 14.1399 5.12032 13.454 4.80762 12.6991C4.49493 11.9442 4.33398 11.135 4.33398 10.3179C4.33398 8.66769 4.98954 7.08504 6.15643 5.91815C7.32332 4.75126 8.90597 4.0957 10.5562 4.0957C12.2064 4.0957 13.7891 4.75126 14.956 5.91815C16.1229 7.08504 16.7784 8.66769 16.7784 10.3179Z" stroke="#737373" stroke-width="1.5" stroke-linecap="round" stroke-linejoin="round"/>
</svg>
