<svg width="24" height="25" viewBox="0 0 24 25" fill="none" xmlns="http://www.w3.org/2000/svg">
<path d="M10.325 4.52362C10.751 2.7226 13.249 2.7226 13.675 4.52362C13.7389 4.79418 13.8642 5.04545 14.0407 5.25695C14.2172 5.46846 14.4399 5.63424 14.6907 5.7408C14.9414 5.84735 15.2132 5.89167 15.4838 5.87015C15.7544 5.84863 16.0162 5.76188 16.248 5.61695C17.791 4.65285 19.558 6.46413 18.618 8.04772C18.4769 8.28532 18.3924 8.55371 18.3715 8.83108C18.3506 9.10845 18.3938 9.38697 18.4975 9.64401C18.6013 9.90105 18.7627 10.1293 18.9687 10.3103C19.1747 10.4913 19.4194 10.6199 19.683 10.6857C21.439 11.1226 21.439 13.6846 19.683 14.1216C19.4192 14.1871 19.1742 14.3156 18.968 14.4967C18.7618 14.6777 18.6001 14.9061 18.4963 15.1633C18.3924 15.4205 18.3491 15.6992 18.3701 15.9767C18.3911 16.2543 18.4757 16.5228 18.617 16.7605C19.557 18.3431 17.791 20.1554 16.247 19.1913C16.0153 19.0466 15.7537 18.96 15.4832 18.9385C15.2128 18.917 14.9412 18.9613 14.6906 19.0678C14.44 19.1742 14.2174 19.3398 14.0409 19.551C13.8645 19.7623 13.7391 20.0133 13.675 20.2836C13.249 22.0846 10.751 22.0846 10.325 20.2836C10.2611 20.0131 10.1358 19.7618 9.95929 19.5503C9.7828 19.3388 9.56011 19.173 9.30935 19.0664C9.05859 18.9599 8.78683 18.9156 8.51621 18.9371C8.24559 18.9586 7.98375 19.0454 7.752 19.1903C6.209 20.1544 4.442 18.3431 5.382 16.7595C5.5231 16.5219 5.60755 16.2535 5.62848 15.9762C5.64942 15.6988 5.60624 15.4203 5.50247 15.1632C5.3987 14.9062 5.23726 14.6779 5.03127 14.4969C4.82529 14.3159 4.58056 14.1873 4.317 14.1216C2.561 13.6846 2.561 11.1226 4.317 10.6857C4.5808 10.6201 4.82578 10.4916 5.032 10.3106C5.23822 10.1296 5.39985 9.90117 5.50375 9.64398C5.60764 9.38678 5.65085 9.10807 5.62987 8.83051C5.60889 8.55295 5.5243 8.28439 5.383 8.0467C4.443 6.46413 6.209 4.65183 7.753 5.61593C8.749 6.23952 10.049 5.68772 10.325 4.52362Z" stroke="#737373" stroke-width="1.5" stroke-linecap="round" stroke-linejoin="round"/>
<path d="M15 12.4031C15 13.2191 14.6839 14.0018 14.1213 14.5788C13.5587 15.1558 12.7956 15.48 12 15.48C11.2044 15.48 10.4413 15.1558 9.87868 14.5788C9.31607 14.0018 9 13.2191 9 12.4031C9 11.587 9.31607 10.8044 9.87868 10.2274C10.4413 9.65035 11.2044 9.32617 12 9.32617C12.7956 9.32617 13.5587 9.65035 14.1213 10.2274C14.6839 10.8044 15 11.587 15 12.4031Z" stroke="#737373" stroke-width="1.5" stroke-linecap="round" stroke-linejoin="round"/>
</svg>
