<svg width="26" height="26" viewBox="0 0 26 26" fill="none" xmlns="http://www.w3.org/2000/svg">
<path d="M13.1997 7.25977V10.723" stroke="white" stroke-width="1.56" stroke-miterlimit="10" stroke-linecap="round"/>
<path d="M13.2203 2.6416C9.39314 2.6416 6.29394 5.7408 6.29394 9.568V11.752C6.29394 12.4592 6.00274 13.52 5.63874 14.1232L4.31794 16.328C3.50674 17.6904 4.06834 19.2088 5.56594 19.708C10.5371 21.3616 15.9139 21.3616 20.8851 19.708C22.2891 19.24 22.8923 17.5968 22.1331 16.328L20.8123 14.1232C20.4483 13.52 20.1571 12.4488 20.1571 11.752V9.568C20.1467 5.7616 17.0267 2.6416 13.2203 2.6416Z" stroke="white" stroke-width="1.56" stroke-miterlimit="10" stroke-linecap="round"/>
<path d="M16.6627 20.1348C16.6627 22.038 15.1027 23.598 13.1995 23.598C12.2531 23.598 11.3795 23.2028 10.7555 22.5788C10.1315 21.9548 9.73633 21.0812 9.73633 20.1348" stroke="white" stroke-width="1.56" stroke-miterlimit="10"/>
</svg>
