<svg width="188" height="188" viewBox="0 0 188 188" fill="none" xmlns="http://www.w3.org/2000/svg">
<path d="M78.6343 56.5967C81.7557 58.8344 86.8039 61.5684 90.5811 60.8711C89.0812 58.947 80.8548 55.7652 78.6343 56.5967Z" fill="#61C0FF"/>
<path d="M155.155 71.1816C152.55 71.6005 149.923 71.8628 147.287 71.9672C145.35 74.5886 141.003 76.9001 138.549 77.3974C135.107 78.0946 129.553 77.6442 126.048 77.2866C126.313 79.5729 126.563 83.1834 125.767 84.7986C124.63 87.1093 151.673 82.7042 157.581 80.5233C162.103 78.8549 156.349 74.7066 155.155 71.1816Z" fill="#E59E70"/>
<path d="M139.423 76.4275C142.051 75.5332 144.423 74.0134 146.334 71.999C135.751 72.2486 126.641 69.6731 120.546 66.1364C120.022 66.0274 111.924 64.2879 110.384 64.6861C109.614 64.8761 108.596 72.1044 108.692 73.8367C108.692 74.0746 132.996 78.6706 139.423 76.4275Z" fill="#E59E70"/>
<path d="M91.038 38.1662C90.9416 34.8052 91.3587 30.2389 93.7649 27.912L93.6748 27.8832C91.002 28.9804 85.5349 32.0811 85.9186 38.9859C87.637 38.7928 89.3453 38.5193 91.038 38.1662ZM108.449 27.3066C107.984 29.6858 106.641 31.8029 104.687 33.2368C107.257 34.0881 111.491 34.8998 113.525 33.1134C115.102 31.7288 112.992 28.8155 108.449 27.3066Z" fill="#FFD35C"/>
<path d="M107.755 27.1976C107.759 27.1644 107.767 27.1319 107.778 27.1003C103.923 26.0878 99.8701 26.1024 96.0224 27.1426C95.8971 27.2876 95.7701 27.4309 95.6422 27.575C98.2321 28.1615 101.086 30.9081 102.869 32.8773C103.177 33.2142 102.675 33.7205 102.365 33.3809C100.615 31.4576 97.1403 28.0326 94.5603 28.1948C93.6467 28.9467 92.9807 29.9562 92.6487 31.0919C91.918 33.3228 91.6124 35.6711 91.7479 38.0148C97.8249 36.6932 106.94 33.2746 107.755 27.1976ZM85.5187 39.7354C83.9197 41.0335 81.246 43.3711 80.619 44.9602C79.6713 47.3609 91.5704 40.2894 94.4018 38.0697C91.4935 38.8765 88.5217 39.4337 85.5187 39.7354ZM171.046 141.173C169.065 138.623 164.657 128.441 164.186 127.198C156.084 105.799 161.41 94.7835 157.58 80.5233C155.113 81.434 149.165 82.6943 143.067 83.7104C144.037 86.3661 145.883 89.0893 148.606 89.9451C150.388 90.5556 152.264 90.8424 154.147 90.7919C154.42 90.779 154.692 90.7388 154.958 90.6721C155.043 90.6623 155.129 90.6834 155.2 90.7315C155.271 90.7796 155.323 90.8515 155.346 90.9343C155.369 91.0172 155.361 91.1054 155.325 91.1832C155.288 91.261 155.225 91.3232 155.147 91.3585C153.417 91.8846 149.522 91.1216 147.822 90.4162C145.185 89.3235 143.223 86.4526 142.341 83.8303C135.282 84.9824 128.198 85.7779 126.253 85.3004C124.581 89.8316 112.2 124.195 112.02 149.705C112.02 149.705 117.302 150.948 126.44 149.705L139.499 99.8552C138.152 96.0216 136.432 92.3292 134.365 88.8308C134.333 88.7508 134.331 88.6621 134.359 88.5807C134.387 88.4994 134.443 88.4307 134.517 88.3872C134.591 88.3437 134.679 88.3281 134.763 88.3434C134.848 88.3587 134.925 88.4037 134.979 88.4704C136.564 91.2373 137.99 94.0925 139.25 97.0221C140.115 99.0994 139.318 97.1707 147.923 124.079C147.938 124.119 147.944 124.163 147.942 124.206C147.939 124.25 147.927 124.292 147.908 124.331C147.888 124.37 147.86 124.404 147.827 124.431C147.793 124.459 147.754 124.479 147.712 124.491C148.896 127.317 150.226 130.079 151.698 132.766L159.028 146.143C159.102 146.278 159.222 146.382 159.367 146.435C159.512 146.488 159.671 146.487 159.815 146.432C161.49 145.786 166.873 143.709 170.773 142.148C170.865 142.112 170.947 142.056 171.013 141.984C171.08 141.911 171.128 141.824 171.155 141.729C171.181 141.634 171.185 141.535 171.167 141.438C171.148 141.341 171.107 141.251 171.046 141.173Z" fill="#FFD35C"/>
<path d="M112.929 45.6642C112.998 46.9168 113.462 48.1152 114.255 49.0874C116 51.2314 119.124 55.223 120.151 57.5634C120.697 58.9604 120.841 60.4821 120.568 61.9567C120.842 61.6396 121.241 61.2135 121.533 61.5126C121.599 61.5799 121.636 61.6703 121.636 61.7644C121.636 61.8585 121.599 61.9489 121.533 62.0162C120.7 62.7924 120.175 63.8425 120.052 64.9745C127.079 69.621 140.035 72.8433 154.883 70.5074C154.955 70.4834 155.033 70.4808 155.107 70.4998C155.181 70.5188 155.248 70.5587 155.3 70.6146C155.667 70.539 155.865 70.4912 155.865 70.4912L153.037 62.5729C143.291 42.3041 127.463 35.42 120.008 33.2273C119.076 36.3947 117.892 41.7384 117.993 45.0742C118.025 46.1552 118.188 46.938 120.009 55.1248C120.109 55.5752 119.423 55.7617 119.323 55.314C117.187 45.6958 116.778 45.367 117.817 39.5035C118.199 37.3202 118.702 35.1597 119.323 33.0319C118.191 32.7059 117.039 32.4523 115.875 32.2725C112.754 33.5264 112.717 42.3104 112.929 45.6642ZM119.324 45.0544C119.173 44.6202 119.865 44.4355 120.011 44.8652C121.518 49.1829 125.52 54.7419 128.208 57.7976C128.251 57.8421 128.282 57.897 128.298 57.9568C128.313 58.0167 128.313 58.0795 128.297 58.1394C128.282 58.1992 128.251 58.2539 128.208 58.2984C128.165 58.3428 128.111 58.3754 128.052 58.393C126.128 58.9039 124.343 59.8387 122.827 61.1289C122.476 61.4198 121.969 60.9181 122.323 60.6253C123.79 59.3881 125.478 58.4405 127.299 57.8327C124.358 54.3177 120.831 49.3649 119.324 45.0544Z" fill="#FEE992"/>
<path d="M176.142 146.136C175.208 145.047 173.94 144.298 172.535 144.008C171.13 143.717 169.669 143.901 168.38 144.53C162.756 147.317 158.405 151.771 157.28 157.998C157.229 158.283 157.52 158.582 157.803 158.401C158.407 158.013 176.058 146.701 176.07 146.695C176.116 146.667 176.155 146.629 176.185 146.583C176.215 146.538 176.234 146.487 176.24 146.433C176.247 146.379 176.242 146.324 176.225 146.273C176.208 146.221 176.179 146.175 176.142 146.136ZM139.252 97.0241C137.993 94.0944 136.567 91.2392 134.982 88.4724C134.927 88.4057 134.851 88.3607 134.766 88.3454C134.682 88.3301 134.594 88.3456 134.52 88.3892C134.446 88.4327 134.39 88.5014 134.362 88.5827C134.334 88.6641 134.336 88.7528 134.367 88.8328C136.434 92.3312 138.154 96.0236 139.502 99.8572C139.772 100.752 147.235 124.249 147.241 124.27C147.381 124.702 148.067 124.518 147.928 124.081C139.548 97.924 140.123 99.1023 139.252 97.0241ZM154.961 90.6723C154.696 90.7387 154.424 90.7789 154.15 90.7921C152.268 90.8426 150.391 90.5559 148.609 89.9453C145.884 89.0895 144.039 86.3636 143.07 83.7106L142.35 83.8304C142.844 85.2682 143.577 86.6122 144.519 87.8058C146.29 90.0579 148.036 90.675 150.619 91.1975C152.105 91.5534 153.647 91.6082 155.155 91.3587C155.234 91.3235 155.298 91.2609 155.335 91.1825C155.371 91.1041 155.379 91.015 155.355 90.9317C155.332 90.8483 155.279 90.7762 155.207 90.7285C155.134 90.6809 155.047 90.6609 154.961 90.6723ZM90.0165 41.2652C89.9764 41.2018 89.9174 41.1525 89.8479 41.1242C89.7784 41.0959 89.7018 41.0901 89.6288 41.1074C89.5558 41.1248 89.49 41.1645 89.4407 41.2211C89.3913 41.2776 89.3608 41.3481 89.3535 41.4228C89.8869 42.467 90.5204 43.4568 91.2453 44.3784C93.8514 47.8782 97.7214 51.8617 102.001 51.1158C105.537 50.4996 108.326 47.5872 109.594 44.3595C113.139 46.6522 112.899 46.5215 113.035 46.5215C112.978 46.238 112.941 45.9509 112.925 45.6621L109.581 43.5001C109.533 43.4734 109.481 43.4577 109.426 43.4542C109.372 43.4508 109.318 43.4597 109.267 43.4802C109.217 43.5007 109.172 43.5324 109.136 43.5728C109.099 43.6133 109.073 43.6614 109.057 43.7136C108.967 43.9823 108.862 44.246 108.743 44.5037C106.636 49.1691 102.035 52.0004 97.7123 49.6069C97.7317 49.1815 97.8161 48.7617 97.9628 48.3619C98.6834 46.3035 100.16 46.7693 99.9671 46.0657C99.9412 45.9751 99.8809 45.8983 99.7991 45.8517C99.7173 45.805 99.6204 45.7923 99.5293 45.8162C98.8337 46.0826 98.2291 46.5431 97.7876 47.1431C97.346 47.7431 97.086 48.4572 97.0385 49.2006C94.2955 47.4034 91.4912 43.8181 90.0165 41.2652Z" fill="black"/>
<path d="M96.2322 42.826C96.2829 42.7566 96.3072 42.6713 96.3006 42.5856C96.294 42.4998 96.2569 42.4193 96.1961 42.3585C96.1353 42.2977 96.0548 42.2606 95.969 42.254C95.8833 42.2474 95.798 42.2716 95.7286 42.3224C95.4403 42.671 95.0079 43.1602 94.6908 43.4809C94.3891 43.78 94.3071 43.8772 94.0603 43.7259C94.0282 43.6876 93.9886 43.6564 93.9438 43.6342C93.8991 43.612 93.8502 43.5994 93.8003 43.5971C93.7504 43.5948 93.7006 43.6029 93.654 43.6209C93.6074 43.6389 93.5651 43.6664 93.5297 43.7016C93.2198 44.0385 93.654 44.4223 94.0756 44.4952C94.5674 44.579 94.8908 44.288 95.2349 43.9457C95.4016 44.306 95.8241 44.7096 96.1439 44.5249C96.4637 44.3403 96.3655 43.6241 95.8926 43.2259C95.9223 43.1926 96.1502 42.9224 96.2322 42.826ZM119.34 151.743C113.087 151.028 107.017 152.495 102.729 157.107C102.681 157.157 102.649 157.22 102.636 157.289C102.624 157.357 102.631 157.428 102.658 157.492C102.684 157.556 102.729 157.612 102.786 157.651C102.843 157.691 102.911 157.713 102.98 157.715H124.676C124.772 157.715 124.863 157.677 124.931 157.609C124.998 157.542 125.036 157.45 125.036 157.354C124.852 155.916 124.19 154.582 123.158 153.565C122.125 152.547 120.781 151.906 119.34 151.743ZM154.961 70.4969C139.548 72.8102 127.018 69.5843 120.052 64.9757C120.174 63.8436 120.7 62.7935 121.533 62.0173C121.838 61.7822 121.475 61.1696 121.03 61.5138C120.041 62.4454 119.431 63.7104 119.319 65.0648C114.905 64.3081 111.895 63.8181 110.598 63.9379C109.993 63.9929 109.731 64.1073 109.494 64.6126C107.275 64.0501 104.993 63.7803 102.704 63.81C101.504 63.1623 98.7599 61.8453 97.4249 62.1119C96.524 62.2921 95.9178 63.4812 97.2654 65.0648L90.9569 62.4704C91.5019 61.076 91.537 61.0913 91.4217 60.9309C90.6497 58.3608 78.2948 53.9945 77.7444 56.5412L77.0642 58.2897C77.0442 58.3654 77.0494 58.4455 77.079 58.518C77.1085 58.5905 77.1609 58.6514 77.2282 58.6915C81.0563 61.4554 85.5271 63.1955 90.2164 63.7469C90.5065 63.7722 90.593 63.401 90.6992 63.129L96.8249 65.645C92.7865 68.4141 93.3963 70.859 95.135 70.2194C95.9378 69.8964 96.7081 69.498 97.4357 69.0294C96.7411 70.0266 95.9367 71.5617 97.088 71.9607C98.16 72.3328 99.477 71.5319 100.384 70.85C100.154 71.4482 99.8013 72.4913 100.46 72.9327C101.77 73.8101 104.023 70.7959 105.163 70.6491C105.471 70.6095 108.039 70.914 108.176 70.9311C108.093 71.5617 107.766 73.9849 108.162 74.3984C108.577 74.8353 126.907 78.1188 135.608 77.7234C137.997 77.7293 140.343 77.0904 142.399 75.8739C144.296 74.9457 145.966 73.612 147.29 71.967C149.926 71.8608 152.554 71.5985 155.158 71.1815C155.594 71.104 155.412 70.4284 154.961 70.4969ZM89.9849 63.011C85.6131 62.4181 81.447 60.7865 77.8354 58.2527L78.2497 57.1925C81.4162 59.5157 86.5915 62.2065 90.5389 61.5939L89.9849 63.011ZM78.6344 56.5961C80.7252 55.8124 88.9778 58.8149 90.5812 60.8706C85.3735 61.8318 78.0146 56.1556 78.6344 56.5961ZM97.3546 62.9019C97.8879 62.3371 100.637 63.5821 101.34 63.9145C100.203 64.0361 99.0981 64.3649 98.0798 64.8847C97.5771 64.3829 96.8573 63.4199 97.3546 62.9019ZM108.268 70.2257C103.953 69.6762 104.946 69.8357 102.183 71.7887C101.878 72.0058 101.2 72.4976 100.844 72.3292C100.623 71.9986 101.13 70.6761 101.779 69.5537C101.976 69.2114 101.497 68.8159 101.219 69.1222C100.846 69.5273 100.439 69.9001 100.002 70.2365C97.7582 71.9869 97.1051 71.0851 97.2492 71.2581C96.8303 70.7509 98.859 68.3448 99.3536 67.8079C99.6166 67.5223 99.2743 67.0161 98.9221 67.2485C97.6413 68.1125 96.2997 68.8829 94.9079 69.5537C94.5755 69.6708 94.4404 69.6537 94.5143 69.2834C94.8269 67.5845 97.9501 65.5162 99.6643 64.9937C102.535 64.1199 106.616 64.5919 109.251 65.2801C108.804 66.9041 108.475 68.554 108.268 70.2257ZM139.423 76.4226C133.657 78.4395 110.836 74.5578 108.692 73.8561C108.653 71.6121 109.474 66.3629 110.141 64.9333C110.176 64.8588 110.228 64.794 110.293 64.7443C110.359 64.6947 110.436 64.6619 110.517 64.6487C112.338 64.3505 120.452 66.1675 120.546 66.1314C126.699 69.7023 135.84 72.2445 146.334 71.9941C144.424 74.0102 142.052 75.527 139.423 76.4226ZM119.322 55.3151C119.422 55.7655 120.109 55.5728 120.009 55.126C119.717 53.8107 118.612 48.73 118.352 47.5103C117.979 45.7591 117.722 44.3988 118.416 40.2028C118.821 37.8511 119.352 35.523 120.008 33.2285C120.019 33.1428 119.999 33.056 119.952 32.9838C119.904 32.9116 119.832 32.8588 119.749 32.8351C119.666 32.8114 119.577 32.8184 119.499 32.8547C119.421 32.891 119.358 32.9543 119.322 33.033C118.699 35.1602 118.197 37.3208 117.817 39.5046C116.779 45.36 117.191 45.7222 119.322 55.3151Z" fill="black"/>
<path d="M119.322 45.0544C120.833 49.3784 124.357 54.3213 127.298 57.8309C125.479 58.4395 123.79 59.3871 122.323 60.6235C121.969 60.9163 122.476 61.418 122.827 61.1271C124.34 59.8339 126.126 58.8988 128.051 58.3912C128.111 58.3736 128.164 58.341 128.207 58.2966C128.251 58.2521 128.281 58.1974 128.297 58.1376C128.313 58.0777 128.313 58.0149 128.297 57.955C128.282 57.8951 128.251 57.8403 128.208 57.7958C125.365 54.5609 121.485 49.082 120.011 44.8634C119.859 44.4355 119.171 44.6202 119.322 45.0544ZM85.0817 39.7809C88.7353 39.4397 92.3443 38.7246 95.852 37.6468C95.9655 37.8207 99.4139 41.8853 100.8 40.7097C101.579 40.0476 100.792 38.645 100.97 37.9937C101.248 36.9739 103.596 36.8937 104.36 38.2369C104.553 38.5648 104.619 38.9516 104.547 39.3249C104.475 39.6981 104.27 40.0325 103.969 40.2656C103.911 40.3021 103.864 40.3547 103.834 40.4172C103.805 40.4797 103.794 40.5494 103.802 40.618C103.811 40.6866 103.84 40.7511 103.885 40.804C103.929 40.8568 103.988 40.8957 104.054 40.916C110.77 42.405 112.261 38.4936 110.153 36.4316C110.325 36.0259 110.454 35.6032 110.537 35.1704L113.578 35.9181C113.637 35.6821 113.701 35.4542 113.77 35.2326L110.612 34.4552C110.612 34.3597 110.612 34.2597 110.606 34.1669C108.593 34.2199 106.586 33.9073 104.685 33.2445C106.576 31.6968 108.198 29.5952 108.468 27.2089C108.469 27.1237 108.439 27.0411 108.384 26.9765C108.328 26.9118 108.251 26.8696 108.167 26.8577C108.083 26.8458 107.997 26.865 107.926 26.9117C107.854 26.9584 107.803 27.0295 107.78 27.1116C107.583 27.7305 107.551 30.024 104.177 32.7418C100.8 35.4785 96.0196 37.0964 91.7451 38.0261C91.6685 34.9903 92.1055 30.0087 94.5377 28.2115C97.1375 28.0241 100.6 31.4905 102.364 33.3922C102.634 33.6877 103.051 33.3417 102.948 33.0238C102.918 32.9337 102.888 32.903 102.371 32.3526C100.685 30.5555 98.0419 28.1295 95.6412 27.5863C96.5421 26.5801 99.4941 23.2542 98.8842 22.1021C98.4527 21.2868 97.133 21.9976 96.4826 22.6813C95.743 23.4569 94.9169 25.9306 94.5845 26.9602C94.1199 26.5713 93.6326 26.2104 93.1252 25.8792C92.4865 25.464 91.5163 24.8127 90.7092 25.0487C90.5445 25.0903 90.3974 25.1833 90.2892 25.3142C90.181 25.4451 90.1173 25.607 90.1074 25.7766C90.1074 26.808 92.7198 27.5935 93.7621 27.9196C91.356 30.2438 90.9389 34.8128 91.0353 38.1738C89.069 38.5864 87.081 38.8872 85.0808 39.0747C84.6312 39.108 84.6258 39.8205 85.0817 39.7809ZM96.0268 25.0235C96.4394 23.974 96.9276 22.8263 97.9645 22.5056C98.223 22.4254 98.3158 22.3759 98.2194 22.7182C97.9041 23.8443 96.17 25.8928 95.3908 26.7891C95.5899 26.1963 95.7998 25.6054 96.0268 25.0235ZM90.8218 25.7756C90.7857 25.7937 90.8046 25.782 90.8218 25.7756V25.7756ZM90.8218 25.7756C90.8065 25.782 90.8083 25.7847 90.8218 25.7756V25.7756ZM90.8218 25.7756C91.3713 25.4243 93.2189 26.7729 93.7351 27.1719C93.0486 26.9593 91.2578 26.3477 90.8218 25.7756Z" fill="black"/>
<path d="M92.2317 115.981C103.14 119.252 104.595 109.557 111.018 112.102C116.661 114.338 126.234 114.421 126.666 106.599C123.587 105.376 120.435 104.344 117.229 103.51C107.225 100.933 97.0803 98.934 86.8465 97.5217C86.5294 97.4794 84.916 97.1019 81.4487 96.7109C81.8775 101.82 83.781 113.448 92.2317 115.981Z" fill="#A76C6C"/>
<path d="M49.634 113.355C43.5002 114.317 43.6732 115.321 40.5572 121.88C40.168 122.699 36.8872 129.645 36.7493 130.552C36.5944 131.572 37.6259 131.884 38.6573 131.862C37.0712 134.575 35.484 137.288 33.8955 139.999C34.8026 140.921 37.1151 143.811 37.8511 149.899C40.8887 151.061 45.5982 151.915 48.3908 150.079C53.7057 146.583 55.7164 134.901 58.2315 132.165C59.0229 131.411 59.856 130.703 60.7268 130.043C61.7051 129.197 62.6933 128.361 63.7338 127.593C59.4152 118.731 55.7506 114.21 53.7346 112.146C51.3996 113.563 51.7996 113.017 49.634 113.355Z" fill="#FF8684"/>
<path d="M160.247 97.2122C157.67 99.0367 154.963 100.67 152.148 102.1C144.355 106.154 134.887 109.585 126.666 106.604C126.234 114.426 116.662 114.343 111.018 112.107C104.595 109.562 103.14 119.258 92.2318 115.986C83.7811 113.451 81.8777 101.824 81.4489 96.7077C73.0756 95.7636 71.3415 96.9852 68.0598 99.776C64.8168 102.532 61.2468 106.228 57.8804 109.08C59.8856 111.099 63.6745 115.695 68.1499 124.949C69.3948 124.441 70.6344 124.572 72.691 124.818C79.0346 125.575 79.8373 127.382 80.5949 131.14C81.9804 138.009 81.5984 149.194 77.3906 154.424C75.1638 154.979 70.5056 155.922 70.801 158.213C71.0208 159.913 73.481 159.114 75.0719 158.461C74.5548 159.245 74.1837 160.172 74.8287 160.713C75.8358 161.562 78.15 160.488 79.2815 159.805C78.8175 162.307 82.0254 161.946 83.9253 160.325C86.3701 158.239 86.8278 154.581 87.4583 151.601C88.8483 145.037 92.1931 128.585 92.5273 126.934C89.7879 126.858 87.044 126.639 84.3234 126.338C83.873 126.288 83.8685 125.576 84.3234 125.626C95.1055 126.821 95.4163 125.722 109.771 126.598C109.866 126.603 109.955 126.645 110.02 126.715C110.084 126.785 110.118 126.877 110.114 126.972C121.906 127.583 123.537 128.887 127.696 132.987C129.214 134.483 132.516 137.743 134.379 138.787C141.48 142.766 142.69 143.501 143.64 145.145C144.956 147.422 146.252 151.636 145.769 154.213C145.642 154.895 144.899 156.532 146.04 156.796C147.062 157.033 148.236 155.63 148.608 154.655C149.799 156.287 151.686 155.815 151.581 153.394C152.611 154.373 153.58 154.119 153.768 153.52C154.302 151.808 149.204 139.203 148.494 138.308C147.648 137.24 144.314 136.722 141.985 135.472C138.297 133.495 137.912 130.485 137.34 124.139C137.016 120.546 136.838 116.932 136.785 113.32C139.019 112.808 141.214 112.136 143.352 111.31C150.257 108.726 157.777 104.422 160.729 97.7022C160.86 97.4149 160.572 96.978 160.247 97.2122Z" fill="#FF8684"/>
<path d="M53.7329 112.147C55.749 114.211 59.4082 118.732 63.7322 127.594C65.095 126.543 66.5765 125.656 68.1462 124.951C63.6691 115.698 59.8802 111.102 57.8767 109.082C56.5752 110.207 55.19 111.232 53.7329 112.147Z" fill="#FCAFB7"/>
<path d="M136.519 139.672C133.043 135.179 132.74 131.435 133.578 126.16C134.15 122.459 135.274 118.864 136.911 115.496C137.12 115.089 136.506 114.728 136.297 115.135C134.25 119.138 132.301 126.041 132.498 131.369C132.656 135.592 134.953 139.347 137.903 142.304C139.992 144.401 140.731 144.481 141.101 145.322C141.293 146.19 141.293 147.089 141.101 147.957C140.29 152.768 135.684 160.929 134.49 160.449C134.096 160.293 134.229 159.389 134.349 158.982C134.367 158.906 134.36 158.828 134.329 158.757C134.299 158.686 134.246 158.627 134.18 158.588C134.113 158.549 134.036 158.533 133.959 158.541C133.882 158.55 133.81 158.582 133.754 158.635C132.098 160.454 129.849 160.797 129.75 160.233C129.66 159.732 130.355 158.642 130.676 158.218C130.915 157.903 130.472 157.599 130.19 157.731C129.515 158.047 127.235 159.038 126.453 158.877C126.247 158.827 126.487 157.845 128.065 157.005C128.612 156.713 129.207 156.527 129.756 156.237C131.883 155.113 133.629 153.072 133.445 150.54C133.211 147.311 130.259 144.252 127.796 142.162C126.672 141.249 125.626 140.244 124.67 139.157C121.825 135.713 120.265 131.388 120.256 126.921C120.218 124.521 120.557 122.13 121.259 119.834C121.412 119.401 120.725 119.214 120.573 119.645C120.388 120.196 120.238 120.757 120.122 121.327C118.846 127.086 119.643 133.279 122.983 138.112C125.226 141.355 127.237 142.427 129.238 144.457C130.736 145.975 132.238 147.811 132.661 149.963C133.152 152.473 131.54 154.473 129.456 155.594C128.825 155.934 126.045 156.773 125.713 158.514C125.667 158.686 125.674 158.868 125.733 159.036C125.793 159.204 125.901 159.35 126.044 159.455C126.765 159.928 128.664 159.157 129.458 158.825C127.926 161.694 130.965 161.847 133.52 159.823C133.54 160.97 134.436 161.42 135.118 161.096C136.54 160.42 141.048 153.349 141.846 147.815C142.488 143.276 140.716 145.095 136.519 139.672ZM32.3197 142.685C31.96 143.176 31.6628 143.709 31.4351 144.274C30.8244 146.516 35.669 149.064 37.8509 149.899C37.1149 143.812 34.8024 140.921 33.8953 139.999C33.725 140.287 32.6576 142.109 32.3197 142.685ZM109.77 126.598C95.0168 125.716 95.4844 126.824 84.5951 125.653C83.5141 122.384 80.2558 118.15 81.9881 114.627C82.1881 114.217 81.5746 113.856 81.3728 114.267C79.8342 117.4 81.653 120.814 82.9943 123.664C84.723 127.342 84.6239 127.994 82.2304 129.899C79.5419 131.845 76.6862 133.548 73.6968 134.989C73.3184 135.15 72.9842 135.399 72.7221 135.716C72.4583 136.069 72.3198 136.5 72.3285 136.941C72.3519 137.969 73.023 138.317 75.4733 143.591C76.0457 144.712 76.514 145.882 76.8723 147.089C76.9858 147.581 77.1758 148.246 76.2047 147.939C75.6837 147.727 75.2134 147.407 74.8247 147C74.7618 146.946 74.6821 146.915 74.5992 146.913C74.5164 146.911 74.4353 146.937 74.3696 146.988C74.304 147.039 74.2579 147.11 74.239 147.191C74.2202 147.272 74.2298 147.357 74.2662 147.431C76.3381 151.094 73.4311 151.623 71.6483 148.445C71.6013 148.377 71.5322 148.327 71.4525 148.304C71.3728 148.28 71.2875 148.285 71.211 148.317C71.1345 148.35 71.0715 148.407 71.0327 148.481C70.9939 148.554 70.9816 148.639 70.9979 148.72C71.2638 149.499 71.43 150.309 71.4925 151.13C71.4925 151.683 71.3961 151.713 71.0313 151.373C69.2476 149.717 61.9977 139.252 62.5823 136.12C63.3246 132.138 70.6808 128.717 71.1988 126.604C71.7672 124.281 68.009 118.862 66.5577 116.955C66.2875 116.595 65.6659 116.95 65.9434 117.315C67.236 119.016 70.6493 123.94 70.5466 126.16C70.4628 128.041 62.9913 131.483 61.9437 135.709C61.5725 137.208 62.2418 138.737 62.8445 140.082C64.7933 144.154 67.2447 147.965 70.1412 151.427C70.625 151.947 71.1988 152.565 71.7943 152.171C72.3068 151.833 72.2321 150.872 72.1321 150.269C73.6022 151.717 75.0688 151.326 75.5057 150.46C75.7573 149.779 75.7357 149.028 75.4453 148.363C75.731 148.589 76.085 148.711 76.4493 148.709C76.8135 148.707 77.1663 148.581 77.4497 148.353C77.5718 148.194 77.6523 148.007 77.6838 147.809C77.7152 147.611 77.6967 147.408 77.6299 147.219C76.9479 145.048 76.0624 142.947 74.985 140.942C72.2654 135.513 71.9717 136.817 76.947 134.085C79.2459 132.892 81.415 131.464 83.4195 129.823C84.6077 128.742 85.1239 127.925 84.8023 126.383C95.324 127.508 95.6862 126.453 109.778 127.307C110.227 127.339 110.227 126.625 109.77 126.598ZM45.199 131.222C43.2865 130.967 41.3812 131.649 38.9481 131.555C38.4829 131.554 38.0207 131.481 37.5779 131.339C37.296 131.229 37.0924 131.105 37.1023 130.827C37.1428 129.89 39.1904 125.587 39.6183 124.714C39.8192 124.303 39.2057 123.942 39.0039 124.354C38.1513 126.031 37.3923 127.755 36.7302 129.516C36.4852 130.202 36.1096 131.108 36.7717 131.678C37.7392 132.515 40.3354 132.266 41.5542 132.116C43.0261 133.941 44.59 133.176 44.0675 131.914C44.4445 131.89 44.8228 131.895 45.199 131.93C45.2814 131.914 45.3558 131.87 45.4094 131.805C45.4629 131.741 45.4922 131.659 45.4922 131.576C45.4922 131.492 45.4629 131.41 45.4094 131.346C45.3558 131.281 45.2814 131.237 45.199 131.222Z" fill="black"/>
<path d="M48.0844 159.908C47.3241 158.609 39.4364 158.709 37.6852 158.689C35.1797 158.6 32.671 158.682 30.1767 158.936C27.8274 159.238 25.9329 160.136 29.7362 160.503C33.737 160.851 37.7538 160.981 41.7687 160.891C43.1803 160.868 48.7303 161.011 48.0844 159.908ZM10.5908 155.731C8.63421 156.034 7.05775 156.931 10.2233 157.299C13.5494 157.647 16.8948 157.776 20.2378 157.685C21.4576 157.664 26.0356 157.8 25.4951 156.704C24.6582 154.991 12.4573 155.441 10.5908 155.731Z" fill="#B26EE6"/>
<path d="M89.3591 155.608C88.3524 157.172 87.6288 158.9 87.2214 160.714C87.1214 161.165 87.8078 161.35 87.9078 160.904C88.3013 159.15 89.0005 157.479 89.9734 155.968C90.223 155.581 89.6068 155.224 89.3591 155.608ZM92.884 154.428C91.3464 155.967 90.2543 157.894 89.7239 160.004C89.7134 160.089 89.7341 160.176 89.7822 160.248C89.8303 160.32 89.9026 160.372 89.986 160.395C90.0693 160.418 90.1581 160.41 90.2361 160.373C90.3142 160.336 90.3764 160.272 90.4112 160.193C90.9078 158.202 91.9352 156.384 93.384 154.932C93.4327 154.863 93.4556 154.779 93.4484 154.694C93.4413 154.61 93.4048 154.531 93.3451 154.471C93.2855 154.41 93.2066 154.373 93.1222 154.366C93.0379 154.358 92.9536 154.38 92.884 154.428ZM95.4478 156.497L92.9957 159.625C92.9444 159.695 92.9197 159.78 92.9262 159.866C92.9327 159.953 92.9698 160.033 93.0309 160.094C93.0921 160.155 93.1731 160.193 93.2592 160.199C93.3453 160.205 93.4309 160.18 93.5002 160.129L95.9514 156.999C96.0015 156.93 96.0252 156.845 96.0183 156.759C96.0114 156.674 95.9743 156.594 95.9137 156.534C95.8531 156.473 95.7729 156.436 95.6875 156.429C95.6022 156.423 95.5172 156.446 95.4478 156.497ZM62.9304 154.999C62.6665 154.683 62.0872 155.09 62.4278 155.504C63.3937 156.667 64.126 158.005 64.5844 159.445C64.7231 159.88 65.4104 159.695 65.2708 159.256C64.7736 157.699 63.9787 156.253 62.9304 154.999ZM64.6006 154.679C66.6329 158.515 65.8563 160.197 66.613 160.206C66.7078 160.205 66.7983 160.167 66.8649 160.099C66.9315 160.032 66.9689 159.941 66.9689 159.846C66.7206 157.912 66.1268 156.039 65.2158 154.316C65.0014 153.914 64.3862 154.273 64.6006 154.679ZM173.975 151.645C172.391 153.445 171.167 155.534 170.372 157.797C170.22 158.229 170.907 158.415 171.058 157.986C171.815 155.838 172.977 153.857 174.482 152.148C174.781 151.805 174.279 151.3 173.975 151.645ZM176.592 153.2C176.66 153.146 176.705 153.069 176.721 152.984C176.737 152.899 176.721 152.811 176.678 152.736C176.634 152.662 176.565 152.605 176.483 152.577C176.401 152.549 176.312 152.552 176.232 152.584C174.526 153.832 173.21 155.54 172.438 157.507C172.427 157.593 172.448 157.68 172.496 157.752C172.544 157.823 172.616 157.876 172.7 157.899C172.783 157.921 172.872 157.914 172.95 157.877C173.028 157.84 173.09 157.776 173.125 157.697C173.835 155.902 175.037 154.343 176.592 153.2ZM178.985 153.513L175.396 157.674C175.098 158.019 175.599 158.525 175.899 158.178L179.488 154.016C179.786 153.671 179.285 153.164 178.985 153.513ZM113.826 161.202H111.402C111.317 161.215 111.24 161.258 111.184 161.324C111.129 161.389 111.098 161.472 111.098 161.558C111.098 161.643 111.129 161.726 111.184 161.791C111.24 161.857 111.317 161.9 111.402 161.913H113.826C113.91 161.9 113.987 161.857 114.043 161.791C114.099 161.726 114.129 161.643 114.129 161.558C114.129 161.472 114.099 161.389 114.043 161.324C113.987 161.258 113.91 161.215 113.826 161.202ZM148.974 159.986H144.126C144.041 159.999 143.963 160.042 143.907 160.107C143.851 160.172 143.82 160.256 143.82 160.342C143.82 160.428 143.851 160.511 143.907 160.577C143.963 160.642 144.041 160.685 144.126 160.698H148.974C149.06 160.685 149.137 160.642 149.194 160.577C149.25 160.511 149.281 160.428 149.281 160.342C149.281 160.256 149.25 160.172 149.194 160.107C149.137 160.042 149.06 159.999 148.974 159.986ZM156.117 162.594C155.18 162.351 154.203 162.301 153.246 162.446C153.156 162.472 153.079 162.532 153.033 162.614C152.986 162.696 152.974 162.793 152.998 162.884C153.16 163.478 153.87 162.743 155.928 163.28C156.013 163.29 156.099 163.269 156.171 163.221C156.242 163.172 156.293 163.101 156.316 163.018C156.339 162.935 156.332 162.847 156.295 162.769C156.259 162.691 156.195 162.629 156.117 162.594ZM63.1628 162.882L60.5018 163.173C60.4165 163.186 60.3387 163.229 60.2825 163.294C60.2263 163.359 60.1953 163.443 60.1953 163.529C60.1953 163.615 60.2263 163.699 60.2825 163.764C60.3387 163.829 60.4165 163.872 60.5018 163.885L63.1628 163.594C63.2481 163.581 63.3259 163.538 63.3821 163.473C63.4384 163.408 63.4693 163.324 63.4693 163.238C63.4693 163.152 63.4384 163.068 63.3821 163.003C63.3259 162.938 63.2481 162.895 63.1628 162.882ZM74.0719 165.561H70.6785C70.5932 165.574 70.5154 165.617 70.4592 165.682C70.403 165.748 70.3721 165.831 70.3721 165.917C70.3721 166.003 70.403 166.087 70.4592 166.152C70.5154 166.217 70.5932 166.261 70.6785 166.273H74.0719C74.1572 166.261 74.235 166.217 74.2912 166.152C74.3475 166.087 74.3784 166.003 74.3784 165.917C74.3784 165.831 74.3475 165.748 74.2912 165.682C74.235 165.617 74.1572 165.574 74.0719 165.561ZM41.5861 164.392L38.4422 164.083C38.3569 164.095 38.2791 164.139 38.2229 164.204C38.1667 164.269 38.1357 164.353 38.1357 164.439C38.1357 164.525 38.1667 164.608 38.2229 164.674C38.2791 164.739 38.3569 164.782 38.4422 164.795L41.5861 165.104C41.6713 165.091 41.7491 165.048 41.8054 164.983C41.8616 164.917 41.8925 164.834 41.8925 164.748C41.8925 164.662 41.8616 164.578 41.8054 164.513C41.7491 164.448 41.6713 164.404 41.5861 164.392Z" fill="#6DD3A8"/>
<path d="M47.6817 122.489C46.9943 124.746 46.5944 127.08 46.4917 129.436C46.3701 134.648 44.5522 145.314 46.4917 146.041C48.4312 146.768 56.3108 147.738 58.0062 143.738C59.3844 140.486 57.6972 135.36 56.9936 132.129C56.5018 129.867 55.9469 127.619 55.3901 125.373C54.7974 122.984 54.4317 115.405 50.1797 117.5C48.5168 118.323 48.1655 120.786 47.6817 122.489Z" fill="#A76C6C"/>
</svg>
