<svg width="52" height="52" viewBox="0 0 52 52" fill="none" xmlns="http://www.w3.org/2000/svg">
<rect x="0.628906" y="0.250977" width="51.2571" height="51.2571" rx="25.6286" fill="#4C4C4C" fill-opacity="0.46"/>
<path d="M17.7139 24.172V27.5892C17.7139 29.2977 18.5682 30.152 20.2767 30.152H21.4984C21.8144 30.152 22.1305 30.246 22.4039 30.4083L24.8984 31.9717C27.0512 33.3214 28.8196 32.339 28.8196 29.8018V21.9594C28.8196 19.4137 27.0512 18.4398 24.8984 19.7895L22.4039 21.3529C22.1305 21.5152 21.8144 21.6092 21.4984 21.6092H20.2767C18.5682 21.6092 17.7139 22.4635 17.7139 24.172Z" stroke="white" stroke-width="1.28143"/>
<path d="M31.3828 22.4629C32.9034 24.4875 32.9034 27.2725 31.3828 29.2972" stroke="white" stroke-width="1.28143" stroke-linecap="round" stroke-linejoin="round"/>
<path d="M32.9463 20.3281C35.4152 23.6171 35.4152 28.1448 32.9463 31.4338" stroke="white" stroke-width="1.28143" stroke-linecap="round" stroke-linejoin="round"/>
</svg>
