<svg width="16" height="15" viewBox="0 0 16 15" fill="none" xmlns="http://www.w3.org/2000/svg">
<path d="M7.04897 0.927078C7.34897 0.00607812 8.65197 0.00607812 8.95097 0.927078L10.021 4.21908C10.0863 4.41957 10.2134 4.59426 10.384 4.71818C10.5547 4.84211 10.7601 4.90892 10.971 4.90908H14.433C15.402 4.90908 15.804 6.14908 15.021 6.71908L12.221 8.75308C12.05 8.87711 11.9227 9.05209 11.8573 9.25293C11.7919 9.45377 11.7918 9.67017 11.857 9.87108L12.927 13.1631C13.227 14.0841 12.172 14.8511 11.387 14.2811L8.58697 12.2471C8.41618 12.1231 8.21053 12.0563 7.99947 12.0563C7.78842 12.0563 7.58277 12.1231 7.41197 12.2471L4.61197 14.2811C3.82797 14.8511 2.77397 14.0841 3.07297 13.1631L4.14297 9.87108C4.20815 9.67017 4.20803 9.45377 4.14264 9.25293C4.07725 9.05209 3.94994 8.87711 3.77897 8.75308L0.979974 6.72008C0.196974 6.15008 0.599974 4.91008 1.56797 4.91008H5.02897C5.24002 4.91013 5.44568 4.84342 5.6165 4.71948C5.78732 4.59554 5.91455 4.42073 5.97997 4.22008L7.04997 0.928078L7.04897 0.927078Z" fill="#FFCD07"/>
</svg>
