<svg width="32" height="33" viewBox="0 0 32 33" fill="none" xmlns="http://www.w3.org/2000/svg">
<path d="M14.7321 4.40245C15.1321 3.17445 16.8695 3.17445 17.2681 4.40245L19.2935 10.6344C19.3806 10.9018 19.5501 11.1347 19.7776 11.2999C20.0051 11.4652 20.279 11.5542 20.5601 11.5544H27.1135C28.4055 11.5544 28.9415 13.2078 27.8975 13.9678L22.5961 17.8184C22.3684 17.984 22.1989 18.2174 22.112 18.4852C22.025 18.7529 22.0251 19.0414 22.1121 19.3091L24.1361 25.5411C24.5361 26.7704 23.1295 27.7918 22.0855 27.0318L16.7841 23.1811C16.5563 23.0155 16.2818 22.9263 16.0001 22.9263C15.7184 22.9263 15.444 23.0155 15.2161 23.1811L9.91479 27.0318C8.87079 27.7918 7.46413 26.7691 7.86413 25.5411L9.88813 19.3091C9.97516 19.0414 9.97522 18.7529 9.88827 18.4852C9.80133 18.2174 9.63185 17.984 9.40413 17.8184L4.10279 13.9678C3.05746 13.2078 3.59613 11.5544 4.88679 11.5544H11.4388C11.7202 11.5545 11.9944 11.4656 12.2222 11.3003C12.4499 11.1351 12.6196 10.902 12.7068 10.6344L14.7321 4.40245Z" stroke="#302F2F" stroke-width="2" stroke-linecap="round" stroke-linejoin="round"/>
</svg>
