<svg width="4" height="10" viewBox="0 0 4 10" fill="none" xmlns="http://www.w3.org/2000/svg">
<path d="M1.98011 9.60227C1.66477 9.60227 1.39418 9.48935 1.16832 9.26349C0.942472 9.03764 0.829546 8.76705 0.829546 8.4517C0.829546 8.13636 0.942472 7.86577 1.16832 7.63991C1.39418 7.41406 1.66477 7.30114 1.98011 7.30114C2.29545 7.30114 2.56605 7.41406 2.7919 7.63991C3.01776 7.86577 3.13068 8.13636 3.13068 8.4517C3.13068 8.66051 3.07741 8.85227 2.97088 9.02699C2.86861 9.2017 2.73011 9.34233 2.5554 9.44886C2.38494 9.55114 2.19318 9.60227 1.98011 9.60227ZM1.98011 2.31534C1.66477 2.31534 1.39418 2.20241 1.16832 1.97656C0.942472 1.75071 0.829546 1.48011 0.829546 1.16477C0.829546 0.849432 0.942472 0.578835 1.16832 0.352983C1.39418 0.127131 1.66477 0.0142047 1.98011 0.0142047C2.29545 0.0142047 2.56605 0.127131 2.7919 0.352983C3.01776 0.578835 3.13068 0.849432 3.13068 1.16477C3.13068 1.37358 3.07741 1.56534 2.97088 1.74006C2.86861 1.91477 2.73011 2.0554 2.5554 2.16193C2.38494 2.2642 2.19318 2.31534 1.98011 2.31534Z" fill="#454545"/>
</svg>
